<svg width="16" height="16" viewBox="0 0 16 16" fill="none" xmlns="http://www.w3.org/2000/svg">
<rect width="15" height="15" transform="translate(0.75 0.75)" fill="#05CD99"/>
<path d="M14.1296 13.0954L11.373 10.3389C12.0367 9.45537 12.395 8.37998 12.3937 7.275C12.3937 4.45254 10.0975 2.15625 7.275 2.15625C4.45254 2.15625 2.15625 4.45254 2.15625 7.275C2.15625 10.0975 4.45254 12.3937 7.275 12.3937C8.37998 12.395 9.45537 12.0367 10.3389 11.373L13.0954 14.1296C13.2349 14.2543 13.4169 14.3209 13.604 14.3157C13.7911 14.3104 13.9691 14.2338 14.1014 14.1014C14.2338 13.9691 14.3104 13.7911 14.3157 13.604C14.3209 13.4169 14.2543 13.2349 14.1296 13.0954ZM3.61875 7.275C3.61875 6.55186 3.83318 5.84496 4.23494 5.2437C4.63669 4.64243 5.20772 4.1738 5.87581 3.89706C6.5439 3.62033 7.27905 3.54793 7.9883 3.689C8.69754 3.83008 9.34902 4.1783 9.86036 4.68964C10.3717 5.20098 10.7199 5.85246 10.861 6.5617C11.0021 7.27094 10.9297 8.00609 10.6529 8.67418C10.3762 9.34228 9.90757 9.9133 9.3063 10.3151C8.70503 10.7168 7.99814 10.9312 7.275 10.9312C6.30566 10.9301 5.37635 10.5445 4.69092 9.85907C4.0055 9.17364 3.61991 8.24434 3.61875 7.275Z" fill="#2D3748"/>
</svg>
