<svg width="37" height="36" viewBox="0 0 37 36" fill="none" xmlns="http://www.w3.org/2000/svg">
<g filter="url(#filter0_d_580_4117)">
<rect x="5.99902" y="2" width="25" height="24.8092" rx="6" fill="#05CD99"/>
</g>
<path d="M14.5818 10.7206H22.3943C22.4855 10.7205 22.5767 10.7263 22.6672 10.7378C22.6366 10.524 22.5626 10.3187 22.4497 10.1341C22.3369 9.94946 22.1876 9.78944 22.0108 9.66366C21.8339 9.53787 21.6333 9.44893 21.4209 9.40218C21.2085 9.35544 20.9887 9.35187 20.7749 9.39168L14.3499 10.4802H14.3425C13.9392 10.5568 13.5806 10.7832 13.3398 11.1133C13.7025 10.8573 14.1367 10.72 14.5818 10.7206V10.7206Z" fill="white"/>
<path d="M22.394 11.3027H14.5815C14.1673 11.3032 13.7701 11.4667 13.4772 11.7574C13.1843 12.0481 13.0195 12.4422 13.019 12.8533V17.505C13.0195 17.9161 13.1843 18.3103 13.4772 18.6009C13.7701 18.8916 14.1673 19.0551 14.5815 19.0556H22.394C22.8083 19.0551 23.2055 18.8916 23.4984 18.6009C23.7913 18.3103 23.9561 17.9161 23.9565 17.505V12.8533C23.9561 12.4422 23.7913 12.0481 23.4984 11.7574C23.2055 11.4667 22.8083 11.3032 22.394 11.3027V11.3027ZM21.2344 15.9544C21.0799 15.9544 20.9288 15.909 20.8003 15.8238C20.6719 15.7386 20.5717 15.6175 20.5126 15.4759C20.4535 15.3342 20.438 15.1783 20.4681 15.0279C20.4983 14.8775 20.5727 14.7394 20.6819 14.631C20.7912 14.5225 20.9304 14.4487 21.082 14.4188C21.2335 14.3889 21.3906 14.4042 21.5333 14.4629C21.6761 14.5216 21.7981 14.6209 21.884 14.7484C21.9698 14.8759 22.0156 15.0258 22.0156 15.1792C22.0156 15.3848 21.9333 15.582 21.7868 15.7274C21.6403 15.8728 21.4416 15.9544 21.2344 15.9544Z" fill="white"/>
<path d="M13.0312 14.4875V12.0768C13.0312 11.5518 13.3242 10.6716 14.3411 10.4809C15.2041 10.3203 16.0586 10.3203 16.0586 10.3203C16.0586 10.3203 16.6201 10.708 16.1562 10.708C15.6924 10.708 15.7046 11.3015 16.1562 11.3015C16.6079 11.3015 16.1562 11.8709 16.1562 11.8709L14.3374 13.9181L13.0312 14.4875Z" fill="white"/>
<defs>
<filter id="filter0_d_580_4117" x="0.499023" y="-2.38419e-07" width="36" height="35.8096" filterUnits="userSpaceOnUse" color-interpolation-filters="sRGB">
<feFlood flood-opacity="0" result="BackgroundImageFix"/>
<feColorMatrix in="SourceAlpha" type="matrix" values="0 0 0 0 0 0 0 0 0 0 0 0 0 0 0 0 0 0 127 0" result="hardAlpha"/>
<feOffset dy="3.5"/>
<feGaussianBlur stdDeviation="2.75"/>
<feColorMatrix type="matrix" values="0 0 0 0 0 0 0 0 0 0 0 0 0 0 0 0 0 0 0.02 0"/>
<feBlend mode="normal" in2="BackgroundImageFix" result="effect1_dropShadow_580_4117"/>
<feBlend mode="normal" in="SourceGraphic" in2="effect1_dropShadow_580_4117" result="shape"/>
</filter>
</defs>
</svg>
