<svg width="37" height="36" viewBox="0 0 37 36" fill="none" xmlns="http://www.w3.org/2000/svg">
<g filter="url(#filter0_d_580_4097)">
<rect x="5.99902" y="2" width="25" height="24.8092" rx="6" fill="#05CD99"/>
</g>
<path d="M16.5469 19.0564C16.9783 19.0564 17.3281 18.7093 17.3281 18.2811C17.3281 17.853 16.9783 17.5059 16.5469 17.5059C16.1154 17.5059 15.7656 17.853 15.7656 18.2811C15.7656 18.7093 16.1154 19.0564 16.5469 19.0564Z" fill="white"/>
<path d="M22.0156 19.0564C22.4471 19.0564 22.7969 18.7093 22.7969 18.2811C22.7969 17.853 22.4471 17.5059 22.0156 17.5059C21.5842 17.5059 21.2344 17.853 21.2344 18.2811C21.2344 18.7093 21.5842 19.0564 22.0156 19.0564Z" fill="white"/>
<path d="M23.4023 11.1286C23.3475 11.062 23.2783 11.0083 23.1999 10.9715C23.1216 10.9347 23.0359 10.9157 22.9492 10.9159H15.5188L15.3691 10.0732C15.3532 9.98346 15.3059 9.90216 15.2355 9.84358C15.1651 9.78501 15.0762 9.75291 14.9844 9.75293H13.4219C13.3183 9.75293 13.2189 9.79377 13.1457 9.86647C13.0724 9.93916 13.0312 10.0378 13.0312 10.1406C13.0312 10.2434 13.0724 10.342 13.1457 10.4147C13.2189 10.4874 13.3183 10.5282 13.4219 10.5282H14.6567L15.7715 16.7979C15.7874 16.8876 15.8348 16.9689 15.9051 17.0275C15.9755 17.0861 16.0644 17.1182 16.1562 17.1181H22.4062C22.5098 17.1181 22.6092 17.0773 22.6825 17.0046C22.7557 16.9319 22.7969 16.8333 22.7969 16.7305C22.7969 16.6277 22.7557 16.5291 22.6825 16.4564C22.6092 16.3837 22.5098 16.3429 22.4062 16.3429H16.4839L16.3462 15.5676H22.2461C22.3816 15.5674 22.5128 15.5208 22.6176 15.4356C22.7224 15.3505 22.7944 15.232 22.8213 15.1002L23.5244 11.6114C23.5414 11.527 23.5392 11.4399 23.5181 11.3564C23.497 11.2729 23.4574 11.1951 23.4023 11.1286V11.1286Z" fill="white"/>
<defs>
<filter id="filter0_d_580_4097" x="0.499023" y="-2.38419e-07" width="36" height="35.8096" filterUnits="userSpaceOnUse" color-interpolation-filters="sRGB">
<feFlood flood-opacity="0" result="BackgroundImageFix"/>
<feColorMatrix in="SourceAlpha" type="matrix" values="0 0 0 0 0 0 0 0 0 0 0 0 0 0 0 0 0 0 127 0" result="hardAlpha"/>
<feOffset dy="3.5"/>
<feGaussianBlur stdDeviation="2.75"/>
<feColorMatrix type="matrix" values="0 0 0 0 0 0 0 0 0 0 0 0 0 0 0 0 0 0 0.02 0"/>
<feBlend mode="normal" in2="BackgroundImageFix" result="effect1_dropShadow_580_4097"/>
<feBlend mode="normal" in="SourceGraphic" in2="effect1_dropShadow_580_4097" result="shape"/>
</filter>
</defs>
</svg>
