<svg width="16" height="17" viewBox="0 0 16 17" fill="none" xmlns="http://www.w3.org/2000/svg">
<path d="M13.7523 10.9678C13.7004 10.9051 13.6495 10.8423 13.5995 10.7818C12.912 9.94704 12.496 9.44323 12.496 7.0801C12.496 5.85665 12.2045 4.8528 11.6298 4.09991C11.206 3.54371 10.6332 3.12178 9.8782 2.80996C9.86849 2.80453 9.85981 2.79741 9.85258 2.78894C9.58102 1.87606 8.83789 1.26465 7.99977 1.26465C7.16164 1.26465 6.41883 1.87606 6.14727 2.788C6.14002 2.79616 6.13146 2.80305 6.12195 2.80839C4.36008 3.53649 3.50383 4.93342 3.50383 7.07915C3.50383 9.44323 3.08852 9.94704 2.40039 10.7809C2.35039 10.8414 2.29945 10.9029 2.24758 10.9669C2.11358 11.1291 2.02868 11.3265 2.00293 11.5356C1.97718 11.7448 2.01165 11.9569 2.10227 12.147C2.29508 12.5549 2.70602 12.808 3.17508 12.808H12.8279C13.2948 12.808 13.7029 12.5552 13.8963 12.1492C13.9873 11.9591 14.0221 11.7468 13.9966 11.5374C13.9711 11.328 13.8863 11.1303 13.7523 10.9678V10.9678Z" fill="#05CD99"/>
<path d="M8.00011 15.3193C8.45168 15.3189 8.89473 15.1958 9.28228 14.9632C9.66983 14.7305 9.98741 14.3968 10.2014 13.9976C10.2114 13.9785 10.2164 13.9571 10.2158 13.9354C10.2152 13.9138 10.209 13.8927 10.1979 13.8742C10.1868 13.8556 10.171 13.8403 10.1523 13.8297C10.1335 13.819 10.1123 13.8135 10.0907 13.8135H5.91011C5.88852 13.8134 5.86728 13.8189 5.84846 13.8295C5.82964 13.8402 5.81388 13.8555 5.80271 13.874C5.79154 13.8926 5.78534 13.9137 5.78472 13.9354C5.7841 13.957 5.78908 13.9785 5.79917 13.9976C6.01309 14.3968 6.33062 14.7304 6.71811 14.9631C7.10559 15.1958 7.54859 15.3188 8.00011 15.3193Z" fill="#05CD99"/>
</svg>
