<svg width="16" height="17" viewBox="0 0 16 17" fill="none" xmlns="http://www.w3.org/2000/svg">
<path d="M13.7523 11.1495C13.7004 11.0867 13.6495 11.024 13.5995 10.9634C12.912 10.1287 12.496 9.62487 12.496 7.26174C12.496 6.03829 12.2045 5.03444 11.6298 4.28155C11.206 3.72535 10.6332 3.30342 9.8782 2.9916C9.86849 2.98617 9.85981 2.97905 9.85258 2.97058C9.58102 2.0577 8.83789 1.44629 7.99977 1.44629C7.16164 1.44629 6.41883 2.0577 6.14727 2.96964C6.14002 2.9778 6.13146 2.98469 6.12195 2.99003C4.36008 3.71813 3.50383 5.11506 3.50383 7.2608C3.50383 9.62487 3.08852 10.1287 2.40039 10.9625C2.35039 11.023 2.29945 11.0845 2.24758 11.1485C2.11358 11.3108 2.02868 11.5081 2.00293 11.7173C1.97718 11.9264 2.01165 12.1386 2.10227 12.3287C2.29508 12.7365 2.70602 12.9897 3.17508 12.9897H12.8279C13.2948 12.9897 13.7029 12.7368 13.8963 12.3309C13.9873 12.1407 14.0221 11.9284 13.9966 11.719C13.9711 11.5096 13.8863 11.312 13.7523 11.1495V11.1495Z" fill="#05CD99"/>
<path d="M8.00011 15.5009C8.45168 15.5005 8.89473 15.3775 9.28228 15.1448C9.66983 14.9121 9.98741 14.5785 10.2014 14.1793C10.2114 14.1601 10.2164 14.1387 10.2158 14.1171C10.2152 14.0954 10.209 14.0743 10.1979 14.0558C10.1868 14.0373 10.171 14.0219 10.1523 14.0113C10.1335 14.0007 10.1123 13.9951 10.0907 13.9951H5.91011C5.88852 13.995 5.86728 14.0006 5.84846 14.0112C5.82964 14.0218 5.81388 14.0371 5.80271 14.0557C5.79154 14.0742 5.78534 14.0953 5.78472 14.117C5.7841 14.1387 5.78908 14.1601 5.79917 14.1793C6.01309 14.5784 6.33062 14.912 6.71811 15.1447C7.10559 15.3774 7.54859 15.5005 8.00011 15.5009Z" fill="#05CD99"/>
</svg>
