<svg width="48" height="48" viewBox="0 0 48 48" fill="none" xmlns="http://www.w3.org/2000/svg">
<circle cx="24" cy="24" r="24" fill="#05CD99"/>
<g clip-path="url(#clip0_580_4175)">
<path d="M24.0124 11.5C17.1124 11.5 11.5249 17.1 11.5249 24C11.5249 30.9 17.1124 36.5 24.0124 36.5C30.9249 36.5 36.5249 30.9 36.5249 24C36.5249 17.1 30.9249 11.5 24.0124 11.5ZM24.0249 34C18.4999 34 14.0249 29.525 14.0249 24C14.0249 18.475 18.4999 14 24.0249 14C29.5499 14 34.0249 18.475 34.0249 24C34.0249 29.525 29.5499 34 24.0249 34ZM28.3999 22.75C29.4374 22.75 30.2749 21.9125 30.2749 20.875C30.2749 19.8375 29.4374 19 28.3999 19C27.3624 19 26.5249 19.8375 26.5249 20.875C26.5249 21.9125 27.3624 22.75 28.3999 22.75ZM19.6499 22.75C20.6874 22.75 21.5249 21.9125 21.5249 20.875C21.5249 19.8375 20.6874 19 19.6499 19C18.6124 19 17.7749 19.8375 17.7749 20.875C17.7749 21.9125 18.6124 22.75 19.6499 22.75ZM24.0249 30.875C26.5624 30.875 28.7749 29.4875 29.9624 27.4375C30.1999 27.025 29.8999 26.5 29.4124 26.5H18.6374C18.1624 26.5 17.8499 27.025 18.0874 27.4375C19.2749 29.4875 21.4874 30.875 24.0249 30.875Z" fill="white"/>
</g>
<defs>
<clipPath id="clip0_580_4175">
<rect width="30" height="30" fill="white" transform="translate(9 9)"/>
</clipPath>
</defs>
</svg>
