<svg width="16" height="17" viewBox="0 0 16 17" fill="none" xmlns="http://www.w3.org/2000/svg">
<path d="M13.7523 10.8614C13.7004 10.7986 13.6495 10.7359 13.5995 10.6754C12.912 9.84059 12.496 9.33678 12.496 6.97365C12.496 5.7502 12.2045 4.74635 11.6298 3.99346C11.206 3.43726 10.6332 3.01533 9.8782 2.70351C9.86849 2.69808 9.85981 2.69097 9.85258 2.68249C9.58102 1.76961 8.83789 1.1582 7.99977 1.1582C7.16164 1.1582 6.41883 1.76961 6.14727 2.68155C6.14002 2.68971 6.13146 2.69661 6.12195 2.70194C4.36008 3.43005 3.50383 4.82697 3.50383 6.97271C3.50383 9.33678 3.08852 9.84059 2.40039 10.6744C2.35039 10.735 2.29945 10.7964 2.24758 10.8604C2.11358 11.0227 2.02868 11.22 2.00293 11.4292C1.97718 11.6383 2.01165 11.8505 2.10227 12.0406C2.29508 12.4484 2.70602 12.7016 3.17508 12.7016H12.8279C13.2948 12.7016 13.7029 12.4487 13.8963 12.0428C13.9873 11.8527 14.0221 11.6403 13.9966 11.4309C13.9711 11.2215 13.8863 11.0239 13.7523 10.8614V10.8614Z" fill="#05CD99"/>
<path d="M8.00011 15.2128C8.45168 15.2124 8.89473 15.0894 9.28228 14.8567C9.66983 14.624 9.98741 14.2904 10.2014 13.8912C10.2114 13.872 10.2164 13.8506 10.2158 13.829C10.2152 13.8074 10.209 13.7862 10.1979 13.7677C10.1868 13.7492 10.171 13.7339 10.1523 13.7232C10.1335 13.7126 10.1123 13.707 10.0907 13.707H5.91011C5.88852 13.707 5.86728 13.7125 5.84846 13.7231C5.82964 13.7337 5.81388 13.749 5.80271 13.7676C5.79154 13.7861 5.78534 13.8072 5.78472 13.8289C5.7841 13.8506 5.78908 13.872 5.79917 13.8912C6.01309 14.2903 6.33062 14.6239 6.71811 14.8566C7.10559 15.0893 7.54859 15.2124 8.00011 15.2128Z" fill="#05CD99"/>
</svg>
