<svg width="16" height="17" viewBox="0 0 16 17" fill="none" xmlns="http://www.w3.org/2000/svg">
<path d="M13.7523 11.2764C13.7004 11.2137 13.6495 11.1509 13.5995 11.0904C12.912 10.2556 12.496 9.75182 12.496 7.38869C12.496 6.16524 12.2045 5.16139 11.6298 4.4085C11.206 3.8523 10.6332 3.43037 9.8782 3.11855C9.86849 3.11312 9.85981 3.10601 9.85258 3.09753C9.58102 2.18465 8.83789 1.57324 7.99977 1.57324C7.16164 1.57324 6.41883 2.18465 6.14727 3.09659C6.14002 3.10475 6.13146 3.11165 6.12195 3.11698C4.36008 3.84509 3.50383 5.24201 3.50383 7.38775C3.50383 9.75182 3.08852 10.2556 2.40039 11.0895C2.35039 11.15 2.29945 11.2115 2.24758 11.2755C2.11358 11.4377 2.02868 11.6351 2.00293 11.8442C1.97718 12.0534 2.01165 12.2655 2.10227 12.4556C2.29508 12.8635 2.70602 13.1166 3.17508 13.1166H12.8279C13.2948 13.1166 13.7029 12.8638 13.8963 12.4578C13.9873 12.2677 14.0221 12.0553 13.9966 11.846C13.9711 11.6366 13.8863 11.4389 13.7523 11.2764V11.2764Z" fill="#05CD99"/>
<path d="M8.00011 15.6279C8.45168 15.6275 8.89473 15.5044 9.28228 15.2717C9.66983 15.0391 9.98741 14.7054 10.2014 14.3062C10.2114 14.2871 10.2164 14.2657 10.2158 14.244C10.2152 14.2224 10.209 14.2013 10.1979 14.1828C10.1868 14.1642 10.171 14.1489 10.1523 14.1383C10.1335 14.1276 10.1123 14.122 10.0907 14.1221H5.91011C5.88852 14.122 5.86728 14.1275 5.84846 14.1381C5.82964 14.1488 5.81388 14.1641 5.80271 14.1826C5.79154 14.2012 5.78534 14.2223 5.78472 14.2439C5.7841 14.2656 5.78908 14.2871 5.79917 14.3062C6.01309 14.7054 6.33062 15.039 6.71811 15.2717C7.10559 15.5044 7.54859 15.6274 8.00011 15.6279Z" fill="#05CD99"/>
</svg>
