<svg width="16" height="17" viewBox="0 0 16 17" fill="none" xmlns="http://www.w3.org/2000/svg">
<path d="M13.7523 11.5655C13.7004 11.5027 13.6495 11.44 13.5995 11.3795C12.912 10.5447 12.496 10.0409 12.496 7.67775C12.496 6.45431 12.2045 5.45045 11.6298 4.69756C11.206 4.14137 10.6332 3.71943 9.8782 3.40761C9.86849 3.40219 9.85981 3.39507 9.85258 3.38659C9.58102 2.47371 8.83789 1.8623 7.99977 1.8623C7.16164 1.8623 6.41883 2.47371 6.14727 3.38565C6.14002 3.39382 6.13146 3.40071 6.12195 3.40604C4.36008 4.13415 3.50383 5.53107 3.50383 7.67681C3.50383 10.0409 3.08852 10.5447 2.40039 11.3785C2.35039 11.4391 2.29945 11.5006 2.24758 11.5645C2.11358 11.7268 2.02868 11.9241 2.00293 12.1333C1.97718 12.3424 2.01165 12.5546 2.10227 12.7447C2.29508 13.1525 2.70602 13.4057 3.17508 13.4057H12.8279C13.2948 13.4057 13.7029 13.1528 13.8963 12.7469C13.9873 12.5568 14.0221 12.3444 13.9966 12.135C13.9711 11.9256 13.8863 11.728 13.7523 11.5655V11.5655Z" fill="#05CD99"/>
<path d="M8.00011 15.9169C8.45168 15.9165 8.89473 15.7935 9.28228 15.5608C9.66983 15.3281 9.98741 14.9945 10.2014 14.5953C10.2114 14.5761 10.2164 14.5547 10.2158 14.5331C10.2152 14.5115 10.209 14.4903 10.1979 14.4718C10.1868 14.4533 10.171 14.438 10.1523 14.4273C10.1335 14.4167 10.1123 14.4111 10.0907 14.4111H5.91011C5.88852 14.4111 5.86728 14.4166 5.84846 14.4272C5.82964 14.4378 5.81388 14.4531 5.80271 14.4717C5.79154 14.4902 5.78534 14.5114 5.78472 14.533C5.7841 14.5547 5.78908 14.5761 5.79917 14.5953C6.01309 14.9944 6.33062 15.3281 6.71811 15.5607C7.10559 15.7934 7.54859 15.9165 8.00011 15.9169Z" fill="#05CD99"/>
</svg>
