<svg width="16" height="16" viewBox="0 0 16 16" fill="none" xmlns="http://www.w3.org/2000/svg">
<path d="M14.4933 1.62129C14.4879 1.59538 14.4753 1.57153 14.4569 1.55254C14.4384 1.53355 14.415 1.5202 14.3892 1.51406C12.6733 1.09453 8.70859 2.58955 6.56054 4.73672C6.17742 5.11675 5.82815 5.52944 5.5167 5.97012C4.85429 5.91152 4.19189 5.96045 3.62734 6.20654C2.03447 6.90762 1.5707 8.73691 1.4415 9.52383C1.43417 9.5669 1.43694 9.61108 1.44958 9.6529C1.46222 9.69473 1.48439 9.73304 1.51434 9.76485C1.5443 9.79665 1.58123 9.82107 1.62222 9.83618C1.66321 9.8513 1.70715 9.8567 1.75058 9.85195L4.30849 9.56982C4.31032 9.76267 4.32196 9.9553 4.34336 10.147C4.35623 10.2801 4.41531 10.4045 4.51035 10.4985L5.50087 11.4867C5.59503 11.5816 5.71938 11.6407 5.85244 11.6537C6.04303 11.675 6.23459 11.6867 6.42636 11.6886L6.1457 14.2433C6.14102 14.2867 6.14646 14.3306 6.16159 14.3716C6.17673 14.4125 6.20115 14.4494 6.23294 14.4794C6.26472 14.5093 6.30302 14.5315 6.34481 14.5441C6.3866 14.5568 6.43076 14.5596 6.47382 14.5523C7.25927 14.4264 9.09179 13.9626 9.78876 12.3697C10.0349 11.8052 10.0852 11.146 10.0284 10.4868C10.4702 10.1753 10.8839 9.82597 11.265 9.44268C13.4198 7.29873 14.9063 3.42246 14.4933 1.62129ZM9.11523 6.88506C8.91847 6.68843 8.78445 6.43786 8.73011 6.16505C8.67578 5.89224 8.70357 5.60944 8.80998 5.35243C8.91639 5.09542 9.09663 4.87574 9.3279 4.72117C9.55918 4.56661 9.8311 4.48412 10.1093 4.48412C10.3874 4.48412 10.6594 4.56661 10.8906 4.72117C11.1219 4.87574 11.3022 5.09542 11.4086 5.35243C11.515 5.60944 11.5428 5.89224 11.4884 6.16505C11.4341 6.43786 11.3001 6.68843 11.1033 6.88506C10.9728 7.01572 10.8179 7.11937 10.6473 7.1901C10.4768 7.26082 10.2939 7.29722 10.1093 7.29722C9.92462 7.29722 9.74179 7.26082 9.57122 7.1901C9.40065 7.11937 9.2457 7.01572 9.11523 6.88506Z" fill="#05CD99"/>
<path d="M5.43359 12.2021C5.27305 12.3629 5.01553 12.4256 4.70557 12.4792C4.00918 12.5979 3.39424 11.9961 3.51934 11.2921C3.56709 11.0252 3.7083 10.6511 3.79619 10.5632C3.8154 10.5443 3.82819 10.5199 3.83273 10.4934C3.83728 10.4669 3.83336 10.4396 3.82152 10.4154C3.80968 10.3913 3.79053 10.3715 3.76679 10.3588C3.74305 10.3461 3.71592 10.3413 3.68926 10.3449C3.29983 10.3926 2.93754 10.5691 2.66006 10.8465C1.97129 11.5358 1.90625 14.0938 1.90625 14.0938C1.90625 14.0938 4.46562 14.0287 5.15439 13.3394C5.43261 13.0621 5.60939 12.6993 5.65625 12.3093C5.66709 12.1868 5.51797 12.1139 5.43359 12.2021Z" fill="#05CD99"/>
</svg>
