<svg width="13" height="12" viewBox="0 0 13 12" fill="none" xmlns="http://www.w3.org/2000/svg">
<path d="M8.29627 1.51359C7.84018 1.02117 7.20315 0.75 6.50002 0.75C5.79315 0.75 5.15401 1.01953 4.70002 1.50891C4.24112 2.00367 4.01752 2.67609 4.07002 3.40219C4.17409 4.83469 5.26416 6 6.50002 6C7.73588 6 8.82408 4.83492 8.92979 3.40265C8.98299 2.68312 8.75799 2.01211 8.29627 1.51359Z" fill="white"/>
<path d="M10.6251 11.25H2.37513C2.26715 11.2514 2.16021 11.2287 2.06209 11.1836C1.96398 11.1385 1.87716 11.072 1.80795 10.9891C1.6556 10.807 1.5942 10.5584 1.63967 10.3069C1.83748 9.20953 2.45482 8.28773 3.42513 7.64062C4.28716 7.06617 5.37912 6.75 6.50013 6.75C7.62115 6.75 8.7131 7.06641 9.57513 7.64062C10.5454 8.2875 11.1628 9.2093 11.3606 10.3066C11.4061 10.5581 11.3447 10.8068 11.1923 10.9889C11.1231 11.0718 11.0363 11.1383 10.9382 11.1835C10.8401 11.2287 10.7331 11.2514 10.6251 11.25V11.25Z" fill="white"/>
</svg>
