<svg width="42" height="41" viewBox="0 0 42 41" fill="none" xmlns="http://www.w3.org/2000/svg">
<g filter="url(#filter0_d_1986_681)">
<rect x="6" y="2.75879" width="30" height="29.1542" rx="12" fill="#1A1F37"/>
</g>
<g clip-path="url(#clip0_1986_681)">
<path d="M27.4933 11.1368C27.4879 11.1116 27.4753 11.0884 27.4569 11.07C27.4384 11.0515 27.415 11.0385 27.3892 11.0326C25.6733 10.6249 21.7086 12.0777 19.5605 14.1644C19.1774 14.5337 18.8281 14.9347 18.5167 15.363C17.8543 15.3061 17.1919 15.3536 16.6273 15.5928C15.0345 16.2741 14.5707 18.0518 14.4415 18.8165C14.4342 18.8584 14.4369 18.9013 14.4496 18.942C14.4622 18.9826 14.4844 19.0198 14.5143 19.0507C14.5443 19.0816 14.5812 19.1054 14.6222 19.1201C14.6632 19.1348 14.7072 19.14 14.7506 19.1354L17.3085 18.8612C17.3103 19.0486 17.322 19.2358 17.3434 19.4221C17.3562 19.5514 17.4153 19.6723 17.5103 19.7637L18.5009 20.7241C18.595 20.8163 18.7194 20.8737 18.8524 20.8863C19.043 20.9071 19.2346 20.9184 19.4264 20.9202L19.1457 23.4029C19.141 23.4451 19.1465 23.4878 19.1616 23.5276C19.1767 23.5674 19.2011 23.6032 19.2329 23.6323C19.2647 23.6614 19.303 23.683 19.3448 23.6953C19.3866 23.7076 19.4308 23.7103 19.4738 23.7033C20.2593 23.5808 22.0918 23.1301 22.7888 21.5822C23.0349 21.0335 23.0852 20.3929 23.0284 19.7524C23.4702 19.4497 23.8839 19.1101 24.265 18.7377C26.4198 16.6542 27.9063 12.8872 27.4933 11.1368ZM22.1152 16.2521C21.9185 16.0611 21.7844 15.8176 21.7301 15.5524C21.6758 15.2873 21.7036 15.0125 21.81 14.7627C21.9164 14.513 22.0966 14.2995 22.3279 14.1493C22.5592 13.9991 22.8311 13.9189 23.1093 13.9189C23.3874 13.9189 23.6594 13.9991 23.8906 14.1493C24.1219 14.2995 24.3022 14.513 24.4086 14.7627C24.515 15.0125 24.5428 15.2873 24.4884 15.5524C24.4341 15.8176 24.3001 16.0611 24.1033 16.2521C23.9728 16.3791 23.8179 16.4799 23.6473 16.5486C23.4768 16.6173 23.2939 16.6527 23.1093 16.6527C22.9246 16.6527 22.7418 16.6173 22.5712 16.5486C22.4007 16.4799 22.2457 16.3791 22.1152 16.2521Z" fill="#05CD99"/>
<path d="M18.4336 21.4192C18.273 21.5755 18.0155 21.6364 17.7056 21.6885C17.0092 21.8038 16.3942 21.219 16.5193 20.5349C16.5671 20.2755 16.7083 19.9119 16.7962 19.8265C16.8154 19.8082 16.8282 19.7845 16.8327 19.7587C16.8373 19.733 16.8334 19.7064 16.8215 19.683C16.8097 19.6595 16.7905 19.6402 16.7668 19.6279C16.743 19.6156 16.7159 19.6109 16.6893 19.6144C16.2998 19.6607 15.9375 19.8323 15.6601 20.1018C14.9713 20.7718 14.9062 23.2576 14.9062 23.2576C14.9062 23.2576 17.4656 23.1943 18.1544 22.5244C18.4326 22.255 18.6094 21.9024 18.6562 21.5234C18.6671 21.4044 18.518 21.3335 18.4336 21.4192Z" fill="#05CD99"/>
</g>
<defs>
<filter id="filter0_d_1986_681" x="0.5" y="0.758789" width="41" height="40.1543" filterUnits="userSpaceOnUse" color-interpolation-filters="sRGB">
<feFlood flood-opacity="0" result="BackgroundImageFix"/>
<feColorMatrix in="SourceAlpha" type="matrix" values="0 0 0 0 0 0 0 0 0 0 0 0 0 0 0 0 0 0 127 0" result="hardAlpha"/>
<feOffset dy="3.5"/>
<feGaussianBlur stdDeviation="2.75"/>
<feColorMatrix type="matrix" values="0 0 0 0 0 0 0 0 0 0 0 0 0 0 0 0 0 0 0.02 0"/>
<feBlend mode="normal" in2="BackgroundImageFix" result="effect1_dropShadow_1986_681"/>
<feBlend mode="normal" in="SourceGraphic" in2="effect1_dropShadow_1986_681" result="shape"/>
</filter>
<clipPath id="clip0_1986_681">
<rect width="15" height="14.5771" fill="white" transform="translate(13.5 10.0469)"/>
</clipPath>
</defs>
</svg>
