<svg width="42" height="41" viewBox="0 0 42 41" fill="none" xmlns="http://www.w3.org/2000/svg">
<g filter="url(#filter0_d_1995_1480)">
<rect x="6" y="2.71338" width="30" height="29.1542" rx="12" fill="#05CD99"/>
</g>
<g clip-path="url(#clip0_1995_1480)">
<path d="M26.0391 16.379H21.9375C21.5645 16.379 21.2069 16.235 20.9431 15.9787C20.6794 15.7224 20.5312 15.3748 20.5312 15.0124V11.0265C20.5312 10.9963 20.5189 10.9673 20.4969 10.946C20.4749 10.9246 20.4451 10.9126 20.4141 10.9126H17.7187C17.2215 10.9126 16.7446 11.1046 16.3929 11.4463C16.0413 11.788 15.8438 12.2515 15.8438 12.7347V21.8454C15.8438 22.3287 16.0413 22.7921 16.3929 23.1339C16.7446 23.4756 17.2215 23.6675 17.7187 23.6675H24.2812C24.7785 23.6675 25.2554 23.4756 25.6071 23.1339C25.9587 22.7921 26.1562 22.3287 26.1562 21.8454V16.4929C26.1562 16.4627 26.1439 16.4337 26.1219 16.4124C26.0999 16.391 26.0701 16.379 26.0391 16.379Z" fill="white"/>
<path d="M25.7818 15.3717L21.5687 11.2773C21.5605 11.2694 21.55 11.264 21.5387 11.2618C21.5274 11.2596 21.5156 11.2608 21.505 11.2651C21.4943 11.2694 21.4851 11.2766 21.4787 11.2859C21.4723 11.2953 21.4688 11.3062 21.4688 11.3174V15.0133C21.4688 15.1341 21.5181 15.2499 21.606 15.3354C21.694 15.4208 21.8132 15.4688 21.9375 15.4688H25.7405C25.7521 15.4687 25.7634 15.4654 25.773 15.4591C25.7825 15.4529 25.79 15.444 25.7944 15.4336C25.7988 15.4232 25.8 15.4118 25.7978 15.4008C25.7955 15.3898 25.79 15.3797 25.7818 15.3717Z" fill="white"/>
</g>
<defs>
<filter id="filter0_d_1995_1480" x="0.5" y="0.713379" width="41" height="40.1543" filterUnits="userSpaceOnUse" color-interpolation-filters="sRGB">
<feFlood flood-opacity="0" result="BackgroundImageFix"/>
<feColorMatrix in="SourceAlpha" type="matrix" values="0 0 0 0 0 0 0 0 0 0 0 0 0 0 0 0 0 0 127 0" result="hardAlpha"/>
<feOffset dy="3.5"/>
<feGaussianBlur stdDeviation="2.75"/>
<feColorMatrix type="matrix" values="0 0 0 0 0 0 0 0 0 0 0 0 0 0 0 0 0 0 0.02 0"/>
<feBlend mode="normal" in2="BackgroundImageFix" result="effect1_dropShadow_1995_1480"/>
<feBlend mode="normal" in="SourceGraphic" in2="effect1_dropShadow_1995_1480" result="shape"/>
</filter>
<clipPath id="clip0_1995_1480">
<rect width="15" height="14.5771" fill="white" transform="translate(13.5 10.0015)"/>
</clipPath>
</defs>
</svg>
