<svg width="80" height="80" viewBox="0 0 80 80" fill="none" xmlns="http://www.w3.org/2000/svg">
<g filter="url(#filter0_b_580_2457)">
<rect x="2.5" y="2.5" width="75" height="75" rx="20" fill="url(#paint0_linear_580_2457)" fill-opacity="0.1"/>
<rect x="1.5" y="1.5" width="77" height="77" rx="21" stroke="url(#paint1_radial_580_2457)" stroke-width="2"/>
</g>
<path d="M45.6379 32.7852C43.1967 32.7852 42.165 33.9501 40.4648 33.9501C38.7217 33.9501 37.392 32.7936 35.2765 32.7936C33.2058 32.7936 30.9977 34.0579 29.5954 36.2115C27.6264 39.2485 27.9607 44.9684 31.1497 49.8412C32.2904 51.5856 33.8137 53.5418 35.8118 53.563H35.8481C37.5846 53.563 38.1004 52.426 40.4902 52.4126H40.5266C42.8806 52.4126 43.3529 53.5564 45.0821 53.5564H45.1184C47.1165 53.5352 48.7216 51.3676 49.8623 49.6299C50.6833 48.3802 50.9884 47.7529 51.6181 46.3392C47.0051 44.5882 46.264 38.0485 50.8262 35.5413C49.4336 33.7975 47.4767 32.7876 45.6319 32.7876L45.6379 32.7852Z" fill="white"/>
<path d="M45.1008 26.4395C43.6477 26.5381 41.9524 27.4633 40.9594 28.6712C40.0585 29.7659 39.3174 31.3898 39.608 32.9646H39.7243C41.2719 32.9646 42.8558 32.0328 43.7809 30.8388C44.6722 29.7023 45.3479 28.0918 45.1008 26.4395Z" fill="white"/>
<defs>
<filter id="filter0_b_580_2457" x="-41.5" y="-41.5" width="163" height="163" filterUnits="userSpaceOnUse" color-interpolation-filters="sRGB">
<feFlood flood-opacity="0" result="BackgroundImageFix"/>
<feGaussianBlur in="BackgroundImageFix" stdDeviation="21"/>
<feComposite in2="SourceAlpha" operator="in" result="effect1_backgroundBlur_580_2457"/>
<feBlend mode="normal" in="SourceGraphic" in2="effect1_backgroundBlur_580_2457" result="shape"/>
</filter>
<linearGradient id="paint0_linear_580_2457" x1="-31.5253" y1="11.6071" x2="48.7886" y2="65.041" gradientUnits="userSpaceOnUse">
<stop offset="0.0001" stop-color="white" stop-opacity="0"/>
<stop offset="1" stop-color="white" stop-opacity="0.39"/>
</linearGradient>
<radialGradient id="paint1_radial_580_2457" cx="0" cy="0" r="1" gradientUnits="userSpaceOnUse" gradientTransform="translate(40 40) rotate(-132.581) scale(70.7181 54.8602)">
<stop stop-color="white"/>
<stop offset="1" stop-color="white" stop-opacity="0"/>
</radialGradient>
</defs>
</svg>
