<svg width="42" height="42" viewBox="0 0 42 42" fill="none" xmlns="http://www.w3.org/2000/svg">
<g filter="url(#filter0_d_1986_686)">
<rect x="6" y="2.97559" width="30" height="29.1542" rx="12" fill="#1A1F37"/>
</g>
<path d="M26.0391 16.6422H21.9375C21.5645 16.6422 21.2069 16.4982 20.9431 16.2419C20.6794 15.9856 20.5312 15.638 20.5312 15.2756V11.2897C20.5312 11.2595 20.5189 11.2305 20.4969 11.2091C20.4749 11.1878 20.4451 11.1758 20.4141 11.1758H17.7187C17.2215 11.1758 16.7446 11.3678 16.3929 11.7095C16.0413 12.0512 15.8438 12.5147 15.8438 12.9979V22.1086C15.8438 22.5919 16.0413 23.0553 16.3929 23.397C16.7446 23.7388 17.2215 23.9307 17.7187 23.9307H24.2812C24.7785 23.9307 25.2554 23.7388 25.6071 23.397C25.9587 23.0553 26.1562 22.5919 26.1562 22.1086V16.7561C26.1562 16.7259 26.1439 16.6969 26.1219 16.6755C26.0999 16.6542 26.0701 16.6422 26.0391 16.6422Z" fill="#05CD99"/>
<path d="M25.7818 15.6344L21.5687 11.54C21.5605 11.5321 21.55 11.5267 21.5387 11.5245C21.5274 11.5223 21.5156 11.5235 21.505 11.5278C21.4943 11.532 21.4851 11.5393 21.4787 11.5486C21.4723 11.558 21.4688 11.5689 21.4688 11.5801V15.2759C21.4688 15.3968 21.5181 15.5126 21.606 15.5981C21.694 15.6835 21.8132 15.7315 21.9375 15.7315H25.7405C25.7521 15.7314 25.7634 15.7281 25.773 15.7218C25.7825 15.7155 25.79 15.7067 25.7944 15.6963C25.7988 15.6859 25.8 15.6745 25.7978 15.6635C25.7955 15.6525 25.79 15.6424 25.7818 15.6344Z" fill="#05CD99"/>
<defs>
<filter id="filter0_d_1986_686" x="0.5" y="0.975586" width="41" height="40.1543" filterUnits="userSpaceOnUse" color-interpolation-filters="sRGB">
<feFlood flood-opacity="0" result="BackgroundImageFix"/>
<feColorMatrix in="SourceAlpha" type="matrix" values="0 0 0 0 0 0 0 0 0 0 0 0 0 0 0 0 0 0 127 0" result="hardAlpha"/>
<feOffset dy="3.5"/>
<feGaussianBlur stdDeviation="2.75"/>
<feColorMatrix type="matrix" values="0 0 0 0 0 0 0 0 0 0 0 0 0 0 0 0 0 0 0.02 0"/>
<feBlend mode="normal" in2="BackgroundImageFix" result="effect1_dropShadow_1986_686"/>
<feBlend mode="normal" in="SourceGraphic" in2="effect1_dropShadow_1986_686" result="shape"/>
</filter>
</defs>
</svg>
