<svg width="30" height="30" viewBox="0 0 30 30" fill="none" xmlns="http://www.w3.org/2000/svg">
<path d="M0 12.6729C0 6.04544 5.37258 0.672852 12 0.672852H18C24.6274 0.672852 30 6.04544 30 12.6729V17.827C30 24.4544 24.6274 29.827 18 29.827H12C5.37258 29.827 0 24.4545 0 17.827V12.6729Z" fill="#1A1F37"/>
<g clip-path="url(#clip0_1986_682)">
<path d="M15.1629 10.8444C15.1193 10.8039 15.0612 10.7812 15.0009 10.7812C14.9405 10.7812 14.8825 10.8039 14.8389 10.8444L9.44531 15.8516C9.42241 15.8729 9.40418 15.8985 9.39175 15.9268C9.37931 15.9552 9.37291 15.9856 9.37295 16.0164L9.37207 20.7159C9.37207 20.9575 9.47084 21.1892 9.64666 21.3601C9.82247 21.5309 10.0609 21.6269 10.3096 21.6269H13.125C13.2493 21.6269 13.3685 21.5789 13.4565 21.4935C13.5444 21.4081 13.5937 21.2922 13.5937 21.1714V17.2993C13.5937 17.2389 13.6184 17.181 13.6624 17.1383C13.7063 17.0956 13.766 17.0716 13.8281 17.0716H16.1719C16.234 17.0716 16.2936 17.0956 16.3376 17.1383C16.3816 17.181 16.4062 17.2389 16.4062 17.2993V21.1714C16.4062 21.2922 16.4556 21.4081 16.5435 21.4935C16.6314 21.5789 16.7507 21.6269 16.875 21.6269H19.6893C19.9379 21.6269 20.1764 21.5309 20.3522 21.3601C20.528 21.1892 20.6268 20.9575 20.6268 20.7159V16.0164C20.6268 15.9856 20.6204 15.9552 20.608 15.9268C20.5955 15.8985 20.5773 15.8729 20.5544 15.8516L15.1629 10.8444Z" fill="#05CD99"/>
<path d="M21.8821 14.9131L19.6907 12.8758V9.78412C19.6907 9.6633 19.6413 9.54743 19.5534 9.462C19.4655 9.37657 19.3463 9.32858 19.222 9.32858H17.8157C17.6914 9.32858 17.5722 9.37657 17.4843 9.462C17.3964 9.54743 17.347 9.6633 17.347 9.78412V10.6952L15.6501 9.11847C15.4913 8.96245 15.2552 8.87305 15 8.87305C14.7457 8.87305 14.5102 8.96245 14.3514 9.11875L8.11993 14.9126C7.93771 15.0834 7.91485 15.3644 8.08068 15.5495C8.12232 15.5962 8.1733 15.6342 8.23053 15.6611C8.28776 15.6881 8.35003 15.7034 8.41356 15.7063C8.47709 15.7091 8.54054 15.6993 8.60006 15.6775C8.65958 15.6558 8.71392 15.6225 8.75978 15.5796L14.8389 9.93444C14.8825 9.89389 14.9405 9.87126 15.0009 9.87126C15.0612 9.87126 15.1193 9.89389 15.1629 9.93444L21.2426 15.5796C21.3321 15.6631 21.4521 15.7087 21.5762 15.7063C21.7002 15.704 21.8183 15.6539 21.9044 15.5671C22.0843 15.386 22.0693 15.0871 21.8821 14.9131Z" fill="#05CD99"/>
</g>
<defs>
<clipPath id="clip0_1986_682">
<rect width="15" height="14.5771" fill="white" transform="translate(7.5 7.96094)"/>
</clipPath>
</defs>
</svg>
