<svg width="80" height="80" viewBox="0 0 80 80" fill="none" xmlns="http://www.w3.org/2000/svg">
<g filter="url(#filter0_b_580_2460)">
<rect x="2.5" y="2.5" width="75" height="75" rx="20" fill="url(#paint0_linear_580_2460)" fill-opacity="0.1"/>
<rect x="1.5" y="1.5" width="77" height="77" rx="21" stroke="url(#paint1_radial_580_2460)" stroke-width="2"/>
</g>
<g clip-path="url(#clip0_580_2460)">
<path d="M52.9163 40.0007C52.9163 32.8707 47.1297 27.084 39.9997 27.084C32.8697 27.084 27.083 32.8707 27.083 40.0007C27.083 46.2523 31.5263 51.4577 37.4163 52.659V43.8757H34.833V40.0007H37.4163V36.7715C37.4163 34.2786 39.4443 32.2507 41.9372 32.2507H45.1663V36.1257H42.583C41.8726 36.1257 41.2913 36.7069 41.2913 37.4173V40.0007H45.1663V43.8757H41.2913V52.8527C47.8143 52.2069 52.9163 46.7044 52.9163 40.0007Z" fill="white"/>
</g>
<defs>
<filter id="filter0_b_580_2460" x="-41.5" y="-41.5" width="163" height="163" filterUnits="userSpaceOnUse" color-interpolation-filters="sRGB">
<feFlood flood-opacity="0" result="BackgroundImageFix"/>
<feGaussianBlur in="BackgroundImageFix" stdDeviation="21"/>
<feComposite in2="SourceAlpha" operator="in" result="effect1_backgroundBlur_580_2460"/>
<feBlend mode="normal" in="SourceGraphic" in2="effect1_backgroundBlur_580_2460" result="shape"/>
</filter>
<linearGradient id="paint0_linear_580_2460" x1="-31.5253" y1="11.6071" x2="48.7886" y2="65.041" gradientUnits="userSpaceOnUse">
<stop offset="0.0001" stop-color="white" stop-opacity="0"/>
<stop offset="1" stop-color="white" stop-opacity="0.39"/>
</linearGradient>
<radialGradient id="paint1_radial_580_2460" cx="0" cy="0" r="1" gradientUnits="userSpaceOnUse" gradientTransform="translate(40 40) rotate(-132.581) scale(70.7181 54.8602)">
<stop stop-color="white"/>
<stop offset="1" stop-color="white" stop-opacity="0"/>
</radialGradient>
<clipPath id="clip0_580_2460">
<rect width="31" height="31" fill="white" transform="translate(24.5 24.5)"/>
</clipPath>
</defs>
</svg>
