<svg width="12" height="12" viewBox="0 0 12 12" fill="none" xmlns="http://www.w3.org/2000/svg">
<g clip-path="url(#clip0_1928_600)">
<path d="M10.8382 3.08979C10.8135 3.04165 10.7777 3.00004 10.7338 2.96834C10.6899 2.93664 10.6392 2.91575 10.5857 2.90737C10.5322 2.899 10.4775 2.90337 10.426 2.92014C10.3746 2.9369 10.3278 2.96559 10.2895 3.00385L8.9695 4.32471C8.9047 4.38857 8.81738 4.42437 8.7264 4.42437C8.63543 4.42437 8.54811 4.38857 8.48331 4.32471L7.91268 3.75323C7.88076 3.72131 7.85543 3.68341 7.83815 3.6417C7.82087 3.59999 7.81197 3.55528 7.81197 3.51013C7.81197 3.46499 7.82087 3.42028 7.83815 3.37857C7.85543 3.33686 7.88076 3.29896 7.91268 3.26704L9.2271 1.95241C9.2665 1.91301 9.29574 1.86463 9.31229 1.81142C9.32883 1.75821 9.3322 1.70178 9.3221 1.64698C9.31199 1.59219 9.28872 1.54067 9.25428 1.49686C9.21984 1.45306 9.17527 1.41829 9.1244 1.39553C8.13161 0.951668 6.89239 1.18327 6.11101 1.95885C5.44714 2.618 5.24927 3.64796 5.56853 4.78469C5.58574 4.84531 5.58584 4.90951 5.56881 4.97018C5.55179 5.03086 5.5183 5.08563 5.47206 5.12844L1.89534 8.39514C1.756 8.52025 1.64361 8.67243 1.56503 8.8424C1.48644 9.01237 1.4433 9.19657 1.43825 9.38377C1.43319 9.57096 1.46633 9.75722 1.53563 9.93119C1.60493 10.1052 1.70894 10.2632 1.84133 10.3956C1.97371 10.5281 2.13169 10.6321 2.30562 10.7015C2.47956 10.7709 2.66581 10.8041 2.853 10.7991C3.0402 10.7942 3.22442 10.7511 3.39442 10.6726C3.56443 10.5941 3.71666 10.4818 3.84183 10.3425L7.14354 6.75782C7.18574 6.71218 7.23959 6.67891 7.29929 6.66161C7.359 6.64431 7.42229 6.64363 7.48235 6.65963C7.80598 6.74831 8.13981 6.79432 8.47536 6.79649C9.19294 6.79649 9.82264 6.56424 10.2768 6.11672C11.1179 5.28807 11.2462 3.88257 10.8382 3.08979ZM2.88771 10.1072C2.74621 10.1227 2.60341 10.0938 2.47901 10.0247C2.35461 9.95548 2.25475 9.84941 2.1932 9.72106C2.13165 9.59272 2.11146 9.44844 2.13541 9.30813C2.15935 9.16782 2.22626 9.03841 2.32688 8.93774C2.42751 8.83708 2.55691 8.77013 2.69721 8.74613C2.83751 8.72214 2.9818 8.74228 3.11016 8.80378C3.23852 8.86528 3.34464 8.96511 3.41385 9.08948C3.48306 9.21386 3.51197 9.35665 3.49657 9.49815C3.47963 9.65384 3.41005 9.79908 3.29933 9.90984C3.18861 10.0206 3.04339 10.0902 2.88771 10.1072Z" fill="white"/>
</g>
<defs>
<clipPath id="clip0_1928_600">
<rect width="11" height="11" fill="white" transform="translate(0.75 0.5)"/>
</clipPath>
</defs>
</svg>
