<svg width="12" height="12" viewBox="0 0 12 12" fill="none" xmlns="http://www.w3.org/2000/svg">
<g clip-path="url(#clip0_1983_648)">
<path d="M10.8382 3.14155C10.8135 3.09341 10.7777 3.05179 10.7338 3.02009C10.6899 2.9884 10.6392 2.96751 10.5857 2.95913C10.5322 2.95076 10.4775 2.95513 10.426 2.97189C10.3746 2.98866 10.3278 3.01734 10.2895 3.05561L8.9695 4.37647C8.9047 4.44033 8.81738 4.47613 8.7264 4.47613C8.63543 4.47613 8.54811 4.44033 8.48331 4.37647L7.91268 3.80499C7.88076 3.77307 7.85543 3.73517 7.83815 3.69346C7.82087 3.65175 7.81197 3.60704 7.81197 3.56189C7.81197 3.51674 7.82087 3.47204 7.83815 3.43033C7.85543 3.38862 7.88076 3.35072 7.91268 3.3188L9.2271 2.00417C9.2665 1.96477 9.29574 1.91638 9.31229 1.86318C9.32883 1.80997 9.3322 1.75354 9.3221 1.69874C9.31199 1.64395 9.28872 1.59243 9.25428 1.54862C9.21984 1.50482 9.17527 1.47004 9.1244 1.44729C8.13161 1.00343 6.89239 1.23503 6.11101 2.01061C5.44714 2.66975 5.24927 3.69971 5.56853 4.83645C5.58574 4.89707 5.58584 4.96127 5.56881 5.02194C5.55179 5.08261 5.5183 5.13739 5.47206 5.1802L1.89534 8.4469C1.756 8.57201 1.64361 8.72419 1.56503 8.89416C1.48644 9.06413 1.4433 9.24833 1.43825 9.43552C1.43319 9.62272 1.46633 9.80898 1.53563 9.98294C1.60493 10.1569 1.70894 10.3149 1.84133 10.4474C1.97371 10.5798 2.13169 10.6839 2.30562 10.7533C2.47956 10.8227 2.66581 10.8559 2.853 10.8509C3.0402 10.8459 3.22442 10.8029 3.39442 10.7244C3.56443 10.6459 3.71666 10.5335 3.84183 10.3942L7.14354 6.80958C7.18574 6.76393 7.23959 6.73067 7.29929 6.71337C7.359 6.69607 7.42229 6.69538 7.48235 6.71139C7.80598 6.80007 8.13981 6.84607 8.47536 6.84825C9.19294 6.84825 9.82264 6.616 10.2768 6.16848C11.1179 5.33983 11.2462 3.93432 10.8382 3.14155ZM2.88771 10.159C2.74621 10.1744 2.60341 10.1456 2.47901 10.0764C2.35461 10.0072 2.25475 9.90116 2.1932 9.77282C2.13165 9.64448 2.11146 9.5002 2.13541 9.35989C2.15935 9.21958 2.22626 9.09016 2.32688 8.9895C2.42751 8.88883 2.55691 8.82188 2.69721 8.79789C2.83751 8.77389 2.9818 8.79404 3.11016 8.85554C3.23852 8.91704 3.34464 9.01686 3.41385 9.14124C3.48306 9.26561 3.51197 9.40841 3.49657 9.54991C3.47963 9.7056 3.41005 9.85084 3.29933 9.9616C3.18861 10.0724 3.04339 10.142 2.88771 10.159Z" fill="white"/>
</g>
<defs>
<clipPath id="clip0_1983_648">
<rect width="11" height="11" fill="white" transform="translate(0.75 0.551758)"/>
</clipPath>
</defs>
</svg>
