<svg width="37" height="36" viewBox="0 0 37 36" fill="none" xmlns="http://www.w3.org/2000/svg">
<g filter="url(#filter0_d_580_4107)">
<rect x="5.99902" y="2" width="25" height="24.8092" rx="6" fill="#05CD99"/>
</g>
<g clip-path="url(#clip0_580_4107)">
<path d="M23.911 9.12957C23.9066 9.10814 23.8961 9.08842 23.8807 9.07271C23.8654 9.05701 23.8458 9.04597 23.8244 9.04089C22.3944 8.69395 19.0905 9.93029 17.3005 11.7059C16.9812 12.0202 16.6901 12.3615 16.4306 12.7259C15.8786 12.6775 15.3266 12.7179 14.8561 12.9214C13.5287 13.5012 13.1423 15.014 13.0346 15.6647C13.0285 15.7004 13.0308 15.7369 13.0413 15.7715C13.0518 15.8061 13.0703 15.8378 13.0953 15.8641C13.1203 15.8904 13.151 15.9106 13.1852 15.923C13.2193 15.9355 13.256 15.94 13.2922 15.9361L15.4237 15.7028C15.4253 15.8623 15.435 16.0216 15.4528 16.1801C15.4635 16.2901 15.5128 16.393 15.592 16.4708L16.4174 17.288C16.4959 17.3665 16.5995 17.4153 16.7104 17.4261C16.8692 17.4437 17.0288 17.4533 17.1886 17.4549L16.9547 19.5676C16.9508 19.6035 16.9554 19.6398 16.968 19.6737C16.9806 19.7075 17.001 19.7381 17.0274 19.7628C17.0539 19.7876 17.0858 19.8059 17.1207 19.8164C17.1555 19.8269 17.1923 19.8292 17.2282 19.8232C17.8827 19.719 19.4098 19.3355 19.9906 18.0182C20.1957 17.5514 20.2377 17.0062 20.1903 16.4611C20.5585 16.2035 20.9033 15.9146 21.2209 15.5976C23.0165 13.8246 24.2553 10.6191 23.911 9.12957ZM19.4294 13.4826C19.2654 13.3199 19.1537 13.1127 19.1084 12.8871C19.0631 12.6615 19.0863 12.4277 19.175 12.2151C19.2637 12.0026 19.4139 11.8209 19.6066 11.6931C19.7993 11.5653 20.0259 11.497 20.2577 11.497C20.4895 11.497 20.7161 11.5653 20.9089 11.6931C21.1016 11.8209 21.2518 12.0026 21.3405 12.2151C21.4291 12.4277 21.4523 12.6615 21.407 12.8871C21.3617 13.1127 21.2501 13.3199 21.0861 13.4826C20.9774 13.5906 20.8482 13.6763 20.7061 13.7348C20.564 13.7933 20.4116 13.8234 20.2577 13.8234C20.1039 13.8234 19.9515 13.7933 19.8093 13.7348C19.6672 13.6763 19.5381 13.5906 19.4294 13.4826Z" fill="white"/>
<path d="M16.3613 17.8795C16.2275 18.0125 16.0129 18.0644 15.7546 18.1087C15.1743 18.2069 14.6619 17.7092 14.7661 17.127C14.8059 16.9063 14.9236 16.5969 14.9968 16.5242C15.0128 16.5087 15.0235 16.4885 15.0273 16.4665C15.0311 16.4446 15.0278 16.422 15.0179 16.4021C15.0081 16.3821 14.9921 16.3657 14.9723 16.3552C14.9525 16.3448 14.9299 16.3407 14.9077 16.3437C14.5832 16.3831 14.2813 16.5292 14.05 16.7585C13.4761 17.3286 13.4219 19.4439 13.4219 19.4439C13.4219 19.4439 15.5547 19.3901 16.1287 18.8201C16.3605 18.5908 16.5078 18.2907 16.5469 17.9682C16.5559 17.8669 16.4316 17.8066 16.3613 17.8795Z" fill="white"/>
</g>
<defs>
<filter id="filter0_d_580_4107" x="0.499023" y="-2.38419e-07" width="36" height="35.8096" filterUnits="userSpaceOnUse" color-interpolation-filters="sRGB">
<feFlood flood-opacity="0" result="BackgroundImageFix"/>
<feColorMatrix in="SourceAlpha" type="matrix" values="0 0 0 0 0 0 0 0 0 0 0 0 0 0 0 0 0 0 127 0" result="hardAlpha"/>
<feOffset dy="3.5"/>
<feGaussianBlur stdDeviation="2.75"/>
<feColorMatrix type="matrix" values="0 0 0 0 0 0 0 0 0 0 0 0 0 0 0 0 0 0 0.02 0"/>
<feBlend mode="normal" in2="BackgroundImageFix" result="effect1_dropShadow_580_4107"/>
<feBlend mode="normal" in="SourceGraphic" in2="effect1_dropShadow_580_4107" result="shape"/>
</filter>
<clipPath id="clip0_580_4107">
<rect width="12.5" height="12.4046" fill="white" transform="translate(12.25 8.20215)"/>
</clipPath>
</defs>
</svg>
