<svg width="27" height="27" viewBox="0 0 27 27" fill="none" xmlns="http://www.w3.org/2000/svg">
<g filter="url(#filter0_b_1928_593)">
<rect x="0.499512" y="0.5" width="26" height="26" rx="8" fill="url(#paint0_linear_1928_593)"/>
</g>
<path d="M8.99927 16.2293V17.7493C8.99927 17.8893 9.10927 17.9993 9.24927 17.9993H10.7693C10.8343 17.9993 10.8993 17.9743 10.9443 17.9243L16.4043 12.4693L14.5293 10.5943L9.07427 16.0493C9.02427 16.0993 8.99927 16.1593 8.99927 16.2293ZM17.8543 11.0193C18.0493 10.8243 18.0493 10.5093 17.8543 10.3143L16.6843 9.1443C16.4893 8.9493 16.1743 8.9493 15.9793 9.1443L15.0643 10.0593L16.9393 11.9343L17.8543 11.0193Z" fill="white"/>
<defs>
<filter id="filter0_b_1928_593" x="-119.5" y="-119.5" width="266" height="266" filterUnits="userSpaceOnUse" color-interpolation-filters="sRGB">
<feFlood flood-opacity="0" result="BackgroundImageFix"/>
<feGaussianBlur in="BackgroundImageFix" stdDeviation="60"/>
<feComposite in2="SourceAlpha" operator="in" result="effect1_backgroundBlur_1928_593"/>
<feBlend mode="normal" in="SourceGraphic" in2="effect1_backgroundBlur_1928_593" result="shape"/>
</filter>
<linearGradient id="paint0_linear_1928_593" x1="7.70523" y1="2.69186" x2="26.1085" y2="23.6953" gradientUnits="userSpaceOnUse">
<stop stop-color="#060B28" stop-opacity="0.94"/>
<stop offset="1" stop-color="#0A0E23" stop-opacity="0.49"/>
<stop offset="1" stop-color="#0A0E23" stop-opacity="0.69"/>
</linearGradient>
</defs>
</svg>
