<svg width="12" height="12" viewBox="0 0 12 12" fill="none" xmlns="http://www.w3.org/2000/svg">
<g clip-path="url(#clip0_1988_605)">
<path d="M10.8382 2.98042C10.8135 2.93228 10.7777 2.89066 10.7338 2.85896C10.6899 2.82726 10.6392 2.80637 10.5857 2.798C10.5322 2.78962 10.4775 2.794 10.426 2.81076C10.3746 2.82753 10.3278 2.85621 10.2895 2.89448L8.9695 4.21534C8.9047 4.2792 8.81738 4.31499 8.7264 4.31499C8.63543 4.31499 8.54811 4.2792 8.48331 4.21534L7.91268 3.64385C7.88076 3.61193 7.85543 3.57404 7.83815 3.53232C7.82087 3.49061 7.81197 3.44591 7.81197 3.40076C7.81197 3.35561 7.82087 3.3109 7.83815 3.26919C7.85543 3.22748 7.88076 3.18958 7.91268 3.15766L9.2271 1.84303C9.2665 1.80364 9.29574 1.75525 9.31229 1.70204C9.32883 1.64884 9.3322 1.59241 9.3221 1.53761C9.31199 1.48281 9.28872 1.43129 9.25428 1.38749C9.21984 1.34369 9.17527 1.30891 9.1244 1.28616C8.13161 0.842293 6.89239 1.07389 6.11101 1.84948C5.44714 2.50862 5.24927 3.53858 5.56853 4.67532C5.58574 4.73594 5.58584 4.80014 5.56881 4.86081C5.55179 4.92148 5.5183 4.97626 5.47206 5.01907L1.89534 8.28577C1.756 8.41087 1.64361 8.56305 1.56503 8.73303C1.48644 8.903 1.4433 9.0872 1.43825 9.27439C1.43319 9.46159 1.46633 9.64785 1.53563 9.82181C1.60493 9.99578 1.70894 10.1538 1.84133 10.2862C1.97371 10.4187 2.13169 10.5228 2.30562 10.5921C2.47956 10.6615 2.66581 10.6947 2.853 10.6898C3.0402 10.6848 3.22442 10.6417 3.39442 10.5632C3.56443 10.4847 3.71666 10.3724 3.84183 10.2331L7.14354 6.64844C7.18574 6.6028 7.23959 6.56954 7.29929 6.55224C7.359 6.53493 7.42229 6.53425 7.48235 6.55026C7.80598 6.63893 8.13981 6.68494 8.47536 6.68712C9.19294 6.68712 9.82264 6.45487 10.2768 6.00735C11.1179 5.1787 11.2462 3.77319 10.8382 2.98042ZM2.88771 9.99786C2.74621 10.0133 2.60341 9.98445 2.47901 9.91528C2.35461 9.84611 2.25475 9.74003 2.1932 9.61169C2.13165 9.48335 2.11146 9.33906 2.13541 9.19876C2.15935 9.05845 2.22626 8.92903 2.32688 8.82837C2.42751 8.7277 2.55691 8.66075 2.69721 8.63676C2.83751 8.61276 2.9818 8.6329 3.11016 8.6944C3.23852 8.7559 3.34464 8.85573 3.41385 8.98011C3.48306 9.10448 3.51197 9.24727 3.49657 9.38877C3.47963 9.54447 3.41005 9.68971 3.29933 9.80047C3.18861 9.91123 3.04339 9.98086 2.88771 9.99786Z" fill="white"/>
</g>
<defs>
<clipPath id="clip0_1988_605">
<rect width="11" height="11" fill="white" transform="translate(0.75 0.390625)"/>
</clipPath>
</defs>
</svg>
