<svg width="16" height="16" viewBox="0 0 16 16" fill="none" xmlns="http://www.w3.org/2000/svg">
<path d="M13.6293 12.5954L10.8728 9.83886C11.5365 8.95537 11.8947 7.87998 11.8935 6.775C11.8935 3.95254 9.59721 1.65625 6.77475 1.65625C3.95229 1.65625 1.65601 3.95254 1.65601 6.775C1.65601 9.59746 3.95229 11.8937 6.77475 11.8937C7.87974 11.895 8.95513 11.5367 9.83862 10.873L12.5952 13.6296C12.7347 13.7543 12.9167 13.8209 13.1038 13.8157C13.2909 13.8104 13.4688 13.7338 13.6012 13.6014C13.7335 13.4691 13.8102 13.2911 13.8154 13.104C13.8207 12.9169 13.7541 12.7349 13.6293 12.5954ZM3.11851 6.775C3.11851 6.05186 3.33294 5.34496 3.73469 4.7437C4.13645 4.14243 4.70748 3.6738 5.37557 3.39706C6.04366 3.12033 6.77881 3.04793 7.48805 3.189C8.1973 3.33008 8.84878 3.6783 9.36011 4.18964C9.87145 4.70098 10.2197 5.35246 10.3607 6.0617C10.5018 6.77094 10.4294 7.50609 10.1527 8.17418C9.87595 8.84228 9.40732 9.4133 8.80606 9.81506C8.20479 10.2168 7.49789 10.4312 6.77475 10.4312C5.80541 10.4301 4.87611 10.0445 4.19068 9.35907C3.50525 8.67364 3.11967 7.74434 3.11851 6.775Z" fill="#05CD99"/>
</svg>
