<svg width="16" height="15" viewBox="0 0 16 15" fill="none" xmlns="http://www.w3.org/2000/svg">
<path d="M1.4375 10.7214C1.4375 11.1443 1.61035 11.5498 1.91803 11.8488C2.2257 12.1478 2.643 12.3158 3.07812 12.3158H12.9219C13.357 12.3158 13.7743 12.1478 14.082 11.8488C14.3896 11.5498 14.5625 11.1443 14.5625 10.7214V6.33691H1.4375V10.7214ZM3.37109 8.55764C3.37109 8.33111 3.46369 8.11386 3.62852 7.95368C3.79335 7.7935 4.0169 7.70352 4.25 7.70352H5.65625C5.88935 7.70352 6.1129 7.7935 6.27773 7.95368C6.44256 8.11386 6.53515 8.33111 6.53515 8.55764V9.12706C6.53515 9.35359 6.44256 9.57084 6.27773 9.73102C6.1129 9.8912 5.88935 9.98119 5.65625 9.98119H4.25C4.0169 9.98119 3.79335 9.8912 3.62852 9.73102C3.46369 9.57084 3.37109 9.35359 3.37109 9.12706V8.55764Z" fill="#05CD99"/>
<path d="M12.9219 2.29297H3.07812C2.643 2.29297 2.2257 2.46095 1.91803 2.75995C1.61035 3.05895 1.4375 3.46448 1.4375 3.88734V4.62758H14.5625V3.88734C14.5625 3.46448 14.3896 3.05895 14.082 2.75995C13.7743 2.46095 13.357 2.29297 12.9219 2.29297Z" fill="#05CD99"/>
</svg>
