<svg width="16" height="16" viewBox="0 0 16 16" fill="none" xmlns="http://www.w3.org/2000/svg">
<path d="M10.2453 2.62485C9.67522 2.02667 8.87893 1.69727 8.00003 1.69727C7.11643 1.69727 6.31751 2.02468 5.75003 2.61915C5.1764 3.22017 4.8969 4.037 4.96253 4.91903C5.09261 6.65917 6.4552 8.07474 8.00003 8.07474C9.54485 8.07474 10.9051 6.65945 11.0372 4.9196C11.1037 4.04554 10.8225 3.23042 10.2453 2.62485Z" fill="#05CD99"/>
<path d="M13.1564 14.4527H2.84392C2.70894 14.4544 2.57526 14.4269 2.45262 14.3721C2.32997 14.3173 2.22145 14.2366 2.13493 14.1359C1.9445 13.9146 1.86775 13.6126 1.92458 13.3071C2.17185 11.9741 2.94353 10.8543 4.15642 10.0682C5.23396 9.3704 6.5989 8.98633 8.00016 8.98633C9.40143 8.98633 10.7664 9.37068 11.8439 10.0682C13.0568 10.854 13.8285 11.9738 14.0757 13.3068C14.1326 13.6123 14.0558 13.9144 13.8654 14.1356C13.7789 14.2363 13.6704 14.3171 13.5478 14.3719C13.4251 14.4268 13.2914 14.4544 13.1564 14.4527Z" fill="#05CD99"/>
</svg>
