<svg width="12" height="13" viewBox="0 0 12 13" fill="none" xmlns="http://www.w3.org/2000/svg">
<path d="M7.79627 2.01359C7.34018 1.52117 6.70315 1.25 6.00002 1.25C5.29315 1.25 4.65401 1.51953 4.20002 2.00891C3.74112 2.50367 3.51752 3.17609 3.57002 3.90219C3.67409 5.33469 4.76416 6.5 6.00002 6.5C7.23588 6.5 8.32408 5.33492 8.42979 3.90265C8.48299 3.18312 8.25799 2.51211 7.79627 2.01359Z" fill="white"/>
<path d="M10.1251 11.75H1.87513C1.76715 11.7514 1.66021 11.7287 1.56209 11.6836C1.46398 11.6385 1.37716 11.572 1.30795 11.4891C1.1556 11.307 1.0942 11.0584 1.13967 10.8069C1.33748 9.70953 1.95482 8.78773 2.92513 8.14062C3.78716 7.56617 4.87912 7.25 6.00013 7.25C7.12115 7.25 8.2131 7.56641 9.07513 8.14062C10.0454 8.7875 10.6628 9.7093 10.8606 10.8066C10.9061 11.0581 10.8447 11.3068 10.6923 11.4889C10.6231 11.5718 10.5363 11.6383 10.4382 11.6835C10.3401 11.7287 10.2331 11.7514 10.1251 11.75Z" fill="white"/>
</svg>
