<svg width="15" height="16" viewBox="0 0 15 16" fill="none" xmlns="http://www.w3.org/2000/svg">
<path d="M7.5 1.86426C4.13994 1.86426 1.40625 4.57384 1.40625 7.90426C1.40625 11.2347 4.13994 13.9443 7.5 13.9443C10.8601 13.9443 13.5937 11.2347 13.5937 7.90426C13.5937 4.57384 10.8601 1.86426 7.5 1.86426ZM10.6714 5.87999L6.73389 10.5261C6.69069 10.5771 6.63695 10.6183 6.57629 10.6469C6.51564 10.6755 6.44949 10.6909 6.38232 10.692H6.37441C6.30871 10.6919 6.24375 10.6782 6.18374 10.6517C6.12373 10.6252 6.07001 10.5865 6.02607 10.538L4.33857 8.67959C4.29572 8.63453 4.26238 8.58144 4.24052 8.52343C4.21866 8.46543 4.20872 8.40367 4.21128 8.3418C4.21384 8.27993 4.22886 8.2192 4.25544 8.16316C4.28202 8.10712 4.31964 8.05692 4.36608 8.0155C4.41251 7.97408 4.46684 7.94227 4.52585 7.92196C4.58487 7.90164 4.64738 7.89323 4.70973 7.8972C4.77207 7.90118 4.83298 7.91746 4.88889 7.9451C4.94479 7.97275 4.99455 8.01118 5.03525 8.05816L6.36211 9.51938L9.95361 5.28238C10.0342 5.19006 10.1482 5.13287 10.2709 5.12317C10.3937 5.11348 10.5153 5.15205 10.6096 5.23056C10.7039 5.30907 10.7633 5.42121 10.7748 5.54273C10.7864 5.66425 10.7492 5.7854 10.6714 5.87999Z" fill="#01B574"/>
</svg>
