<svg width="13" height="13" viewBox="0 0 13 13" fill="none" xmlns="http://www.w3.org/2000/svg">
<g clip-path="url(#clip0_580_4089)">
<path d="M11.7136 3.1218C11.6855 3.06751 11.6448 3.02058 11.595 2.98483C11.5451 2.94909 11.4874 2.92553 11.4266 2.91609C11.3659 2.90664 11.3037 2.91157 11.2452 2.93048C11.1867 2.94939 11.1336 2.98173 11.0901 3.02489L9.59006 4.51441C9.51643 4.58642 9.4172 4.62679 9.31382 4.62679C9.21044 4.62679 9.11121 4.58642 9.03757 4.51441L8.38914 3.86995C8.35285 3.83395 8.32407 3.79121 8.30444 3.74418C8.2848 3.69714 8.27469 3.64673 8.27469 3.59581C8.27469 3.5449 8.2848 3.49448 8.30444 3.44745C8.32407 3.40041 8.35285 3.35767 8.38914 3.32168L9.88279 1.83918C9.92756 1.79476 9.96079 1.74019 9.97959 1.68019C9.9984 1.62019 10.0022 1.55655 9.99074 1.49476C9.97926 1.43297 9.95281 1.37487 9.91367 1.32547C9.87454 1.27607 9.82389 1.23686 9.76609 1.2112C8.63792 0.710659 7.22971 0.971834 6.34177 1.84645C5.58738 2.58976 5.36253 3.75123 5.72532 5.03312C5.74488 5.10148 5.74499 5.17388 5.72565 5.2423C5.7063 5.31071 5.66824 5.37248 5.6157 5.42076L1.55125 9.10458C1.39291 9.24566 1.26519 9.41728 1.17589 9.60895C1.08658 9.80063 1.03756 10.0083 1.03182 10.2194C1.02608 10.4305 1.06373 10.6406 1.14248 10.8368C1.22123 11.0329 1.33943 11.2111 1.48987 11.3605C1.6403 11.5099 1.81982 11.6272 2.01748 11.7055C2.21513 11.7837 2.42677 11.8212 2.6395 11.8156C2.85222 11.8099 3.06156 11.7614 3.25475 11.6729C3.44794 11.5843 3.62093 11.4576 3.76316 11.3006L7.51511 7.25819C7.56306 7.20672 7.62426 7.16921 7.6921 7.1497C7.75995 7.13019 7.83187 7.12942 7.90012 7.14747C8.26788 7.24747 8.64723 7.29935 9.02854 7.3018C9.84397 7.3018 10.5595 7.0399 11.0757 6.53524C12.0315 5.60078 12.1772 4.0158 11.7136 3.1218ZM2.67893 11.0353C2.51814 11.0527 2.35587 11.0202 2.2145 10.9422C2.07314 10.8642 1.95966 10.7445 1.88972 10.5998C1.81978 10.4551 1.79684 10.2924 1.82405 10.1342C1.85126 9.97593 1.92729 9.82998 2.04164 9.71647C2.15599 9.60295 2.30303 9.52745 2.46246 9.50039C2.62189 9.47333 2.78585 9.49605 2.93172 9.5654C3.07759 9.63475 3.19817 9.74732 3.27682 9.88758C3.35548 10.0278 3.38832 10.1889 3.37083 10.3484C3.35158 10.524 3.2725 10.6878 3.14669 10.8127C3.02087 10.9376 2.85585 11.0161 2.67893 11.0353Z" fill="white"/>
</g>
<defs>
<clipPath id="clip0_580_4089">
<rect width="12.5" height="12.4046" fill="white" transform="translate(0.25 0.202148)"/>
</clipPath>
</defs>
</svg>
