<svg width="16" height="15" viewBox="0 0 16 15" fill="none" xmlns="http://www.w3.org/2000/svg">
<path d="M10.2453 1.92953C9.67522 1.33136 8.87893 1.00195 8.00003 1.00195C7.11643 1.00195 6.31751 1.32937 5.75003 1.92384C5.1764 2.52486 4.8969 3.34169 4.96253 4.22372C5.09261 5.96386 6.4552 7.37943 8.00003 7.37943C9.54485 7.37943 10.9051 5.96414 11.0372 4.22429C11.1037 3.35023 10.8225 2.53511 10.2453 1.92953Z" fill="white"/>
<path d="M13.1564 13.7574H2.84392C2.70894 13.7591 2.57526 13.7316 2.45262 13.6768C2.32997 13.6219 2.22145 13.5412 2.13493 13.4405C1.9445 13.2193 1.86775 12.9172 1.92458 12.6118C2.17185 11.2787 2.94353 10.159 4.15642 9.37291C5.23396 8.67509 6.5989 8.29102 8.00016 8.29102C9.40143 8.29102 10.7664 8.67537 11.8439 9.37291C13.0568 10.1587 13.8285 11.2785 14.0757 12.6115C14.1326 12.917 14.0558 13.219 13.8654 13.4403C13.7789 13.541 13.6704 13.6218 13.5478 13.6766C13.4251 13.7315 13.2914 13.7591 13.1564 13.7574Z" fill="white"/>
</svg>
