<svg width="16" height="16" viewBox="0 0 16 16" fill="none" xmlns="http://www.w3.org/2000/svg">
<g clip-path="url(#clip0_1769_1051)">
<path d="M8.16289 3.84443C8.11927 3.80388 8.06124 3.78125 8.00088 3.78125C7.94052 3.78125 7.88248 3.80388 7.83887 3.84443L2.44531 8.8516C2.42241 8.8729 2.40418 8.89848 2.39175 8.92682C2.37931 8.95515 2.37291 8.98564 2.37295 9.01645L2.37207 13.7159C2.37207 13.9575 2.47084 14.1892 2.64666 14.3601C2.82247 14.5309 3.06093 14.6269 3.30957 14.6269H6.125C6.24932 14.6269 6.36855 14.5789 6.45645 14.4935C6.54436 14.4081 6.59375 14.2922 6.59375 14.1714V10.2993C6.59375 10.2389 6.61844 10.181 6.6624 10.1383C6.70635 10.0956 6.76596 10.0716 6.82812 10.0716H9.17187C9.23403 10.0716 9.29365 10.0956 9.3376 10.1383C9.38155 10.181 9.40625 10.2389 9.40625 10.2993V14.1714C9.40625 14.2922 9.45563 14.4081 9.54354 14.4935C9.63145 14.5789 9.75068 14.6269 9.875 14.6269H12.6893C12.9379 14.6269 13.1764 14.5309 13.3522 14.3601C13.528 14.1892 13.6268 13.9575 13.6268 13.7159V9.01645C13.6268 8.98564 13.6204 8.95515 13.608 8.92682C13.5955 8.89848 13.5773 8.8729 13.5544 8.8516L8.16289 3.84443Z" fill="#05CD99"/>
<path d="M14.8826 7.91314L12.6912 5.87577V2.78412C12.6912 2.6633 12.6418 2.54743 12.5539 2.462C12.466 2.37657 12.3468 2.32858 12.2225 2.32858H10.8162C10.6919 2.32858 10.5727 2.37657 10.4848 2.462C10.3969 2.54743 10.3475 2.6633 10.3475 2.78412V3.69518L8.65059 2.11847C8.4918 1.96245 8.25567 1.87305 8.0005 1.87305C7.7462 1.87305 7.51065 1.96245 7.35186 2.11875L1.12042 7.91257C0.938195 8.0834 0.915343 8.36441 1.08116 8.54947C1.1228 8.59618 1.17379 8.63417 1.23102 8.66112C1.28824 8.68808 1.35052 8.70344 1.41405 8.70626C1.47758 8.70908 1.54103 8.69931 1.60055 8.67755C1.66007 8.65578 1.71441 8.62247 1.76026 8.57965L7.83936 2.93444C7.88298 2.89389 7.94102 2.87126 8.00138 2.87126C8.06174 2.87126 8.11977 2.89389 8.16339 2.93444L14.2431 8.57965C14.3326 8.66311 14.4526 8.70866 14.5766 8.70631C14.7007 8.70396 14.8187 8.65391 14.9049 8.56712C15.0848 8.38604 15.0698 8.0871 14.8826 7.91314Z" fill="#05CD99"/>
</g>
<defs>
<clipPath id="clip0_1769_1051">
<rect width="15" height="14.5771" fill="white" transform="translate(0.5 0.960938)"/>
</clipPath>
</defs>
</svg>
