<svg width="15" height="16" viewBox="0 0 15 16" fill="none" xmlns="http://www.w3.org/2000/svg">
<path d="M7.5 1.90625C4.13994 1.90625 1.40625 4.63994 1.40625 8C1.40625 11.3601 4.13994 14.0937 7.5 14.0937C10.8601 14.0937 13.5937 11.3601 13.5937 8C13.5937 4.63994 10.8601 1.90625 7.5 1.90625ZM10.6714 5.95771L6.73389 10.6452C6.69069 10.6967 6.63695 10.7382 6.57629 10.7671C6.51564 10.7959 6.44949 10.8114 6.38232 10.8125H6.37441C6.30871 10.8125 6.24375 10.7986 6.18374 10.7719C6.12373 10.7451 6.07001 10.7061 6.02607 10.6572L4.33857 8.78223C4.29572 8.73677 4.26238 8.68321 4.24052 8.62468C4.21866 8.56616 4.20872 8.50386 4.21128 8.44144C4.21384 8.37902 4.22886 8.31774 4.25544 8.2612C4.28202 8.20467 4.31964 8.15402 4.36608 8.11223C4.41251 8.07044 4.46684 8.03835 4.52585 8.01786C4.58487 7.99736 4.64738 7.98887 4.70973 7.99288C4.77207 7.99689 4.83298 8.01332 4.88889 8.04121C4.94479 8.0691 4.99455 8.10788 5.03525 8.15527L6.36211 9.62949L9.95361 5.35478C10.0342 5.26164 10.1482 5.20395 10.2709 5.19416C10.3937 5.18438 10.5153 5.2233 10.6096 5.30251C10.7039 5.38172 10.7633 5.49485 10.7748 5.61745C10.7864 5.74006 10.7492 5.86229 10.6714 5.95771Z" fill="#01B574"/>
</svg>
