<svg width="16" height="16" viewBox="0 0 16 16" fill="none" xmlns="http://www.w3.org/2000/svg">
<path d="M14.2563 4.21348C14.2226 4.14968 14.1738 4.09454 14.1139 4.05253C14.0541 4.01052 13.9849 3.98284 13.912 3.97174C13.8391 3.96064 13.7645 3.96644 13.6943 3.98865C13.6241 4.01087 13.5603 4.04888 13.5081 4.0996L11.7081 5.84999C11.6197 5.93461 11.5006 5.98205 11.3766 5.98205C11.2525 5.98205 11.1334 5.93461 11.0451 5.84999L10.267 5.09266C10.2234 5.05036 10.1889 5.00014 10.1653 4.94486C10.1418 4.88959 10.1296 4.83034 10.1296 4.77051C10.1296 4.71068 10.1418 4.65144 10.1653 4.59616C10.1889 4.54089 10.2234 4.49067 10.267 4.44836L12.0593 2.70623C12.1131 2.65402 12.1529 2.5899 12.1755 2.51939C12.1981 2.44888 12.2027 2.3741 12.1889 2.30148C12.1751 2.22887 12.1434 2.1606 12.0964 2.10255C12.0494 2.0445 11.9887 1.99842 11.9193 1.96827C10.5655 1.38006 8.87566 1.68697 7.81013 2.71477C6.90486 3.58826 6.63503 4.95315 7.07038 6.45955C7.09386 6.53988 7.09399 6.62496 7.07077 6.70536C7.04756 6.78576 7.00189 6.85835 6.93884 6.91508L2.0615 11.2441C1.87149 11.4099 1.71823 11.6115 1.61107 11.8368C1.5039 12.062 1.44508 12.3061 1.43819 12.5542C1.43129 12.8023 1.47647 13.0491 1.57098 13.2796C1.66548 13.5102 1.80732 13.7196 1.98784 13.8951C2.16836 14.0706 2.38379 14.2085 2.62097 14.3005C2.85816 14.3924 3.11213 14.4364 3.36739 14.4298C3.62266 14.4233 3.87387 14.3662 4.1057 14.2621C4.33753 14.1581 4.54511 14.0093 4.71579 13.8247L9.21814 9.07431C9.27568 9.01383 9.34911 8.96975 9.43052 8.94682C9.51194 8.92389 9.59824 8.92299 9.68015 8.9442C10.1215 9.06171 10.5767 9.12268 11.0342 9.12556C12.0128 9.12556 12.8715 8.81779 13.4908 8.22474C14.6378 7.12662 14.8127 5.26406 14.2563 4.21348ZM3.41472 13.5129C3.22177 13.5334 3.02704 13.4952 2.85741 13.4035C2.68777 13.3118 2.55159 13.1713 2.46767 13.0012C2.38374 12.8311 2.3562 12.6399 2.38886 12.454C2.42151 12.268 2.51274 12.0965 2.64996 11.9631C2.78719 11.8297 2.96363 11.741 3.15495 11.7092C3.34627 11.6774 3.54302 11.7041 3.71807 11.7856C3.89311 11.8671 4.03781 11.9994 4.13219 12.1642C4.22657 12.329 4.26599 12.5183 4.24499 12.7058C4.2219 12.9121 4.12701 13.1046 3.97602 13.2513C3.82504 13.3981 3.62702 13.4904 3.41472 13.5129Z" fill="#05CD99"/>
</svg>
