<svg width="12" height="12" viewBox="0 0 12 12" fill="none" xmlns="http://www.w3.org/2000/svg">
<g clip-path="url(#clip0_1983_610)">
<path d="M6.00003 4.125C5.62919 4.125 5.26668 4.23497 4.95834 4.44099C4.65 4.64702 4.40967 4.93986 4.26776 5.28247C4.12584 5.62508 4.08871 6.00208 4.16106 6.36579C4.23341 6.72951 4.41198 7.0636 4.67421 7.32582C4.93643 7.58805 5.27052 7.76662 5.63424 7.83897C5.99795 7.91132 6.37495 7.87419 6.71756 7.73227C7.06017 7.59036 7.35301 7.35003 7.55904 7.04169C7.76506 6.73335 7.87503 6.37084 7.87503 6C7.87355 5.50317 7.67553 5.02712 7.32422 4.67581C6.97291 4.3245 6.49686 4.12648 6.00003 4.125ZM10.0482 6C10.0472 6.1752 10.0343 6.35013 10.0097 6.52359L11.1509 7.41703C11.2006 7.45807 11.2341 7.51544 11.2454 7.5789C11.2567 7.64236 11.245 7.70777 11.2125 7.76343L10.133 9.62718C10.1002 9.68236 10.049 9.72419 9.98834 9.74533C9.92773 9.76646 9.8616 9.76554 9.80159 9.74273L8.4598 9.20367C8.18039 9.41882 7.87463 9.59738 7.54995 9.735L7.34933 11.1595C7.3381 11.2233 7.30506 11.2813 7.25586 11.3234C7.20665 11.3656 7.14434 11.3893 7.07956 11.3906H4.9205C4.8569 11.3894 4.7956 11.3666 4.74661 11.3261C4.69761 11.2855 4.66382 11.2295 4.65073 11.1673L4.45011 9.74273C4.12453 9.60671 3.81855 9.42787 3.54027 9.21093L2.19847 9.75C2.13849 9.77283 2.07238 9.77378 2.01177 9.75269C1.95115 9.7316 1.89992 9.68982 1.86706 9.63468L0.787533 7.77117C0.755039 7.7155 0.743398 7.6501 0.75469 7.58664C0.765982 7.52318 0.799472 7.4658 0.849174 7.42476L1.99035 6.53133C1.966 6.35524 1.95317 6.17775 1.95191 6C1.95288 5.8248 1.96572 5.64987 1.99035 5.4764L0.849174 4.58297C0.799472 4.54193 0.765982 4.48455 0.75469 4.42109C0.743398 4.35763 0.755039 4.29223 0.787533 4.23656L1.86706 2.37281C1.89988 2.31764 1.9511 2.27581 2.01172 2.25467C2.07234 2.23354 2.13846 2.23446 2.19847 2.25727L3.54027 2.79633C3.81967 2.58117 4.12543 2.40262 4.45011 2.265L4.65073 0.840469C4.66196 0.77666 4.695 0.718731 4.74421 0.676581C4.79341 0.634431 4.85572 0.610675 4.9205 0.609375H7.07956C7.14316 0.610613 7.20446 0.633373 7.25345 0.67394C7.30245 0.714507 7.33625 0.770484 7.34933 0.832734L7.54995 2.25727C7.87594 2.3932 8.18232 2.57204 8.46097 2.78906L9.80159 2.25C9.86157 2.22717 9.92768 2.22622 9.98829 2.24731C10.0489 2.2684 10.1001 2.31018 10.133 2.36531L11.2125 4.22906C11.245 4.28473 11.2567 4.35013 11.2454 4.41359C11.2341 4.47705 11.2006 4.53443 11.1509 4.57547L10.0097 5.4689C10.034 5.64491 10.0469 5.82232 10.0482 6Z" fill="white"/>
</g>
<defs>
<clipPath id="clip0_1983_610">
<rect width="12" height="12" fill="white"/>
</clipPath>
</defs>
</svg>
