<svg width="16" height="16" viewBox="0 0 16 16" fill="none" xmlns="http://www.w3.org/2000/svg">
<path d="M14.4933 1.83112C14.4879 1.80594 14.4753 1.78276 14.4569 1.76431C14.4384 1.74585 14.415 1.73288 14.3892 1.72692C12.6733 1.31921 8.70859 2.77208 6.56054 4.85871C6.17742 5.22802 5.82815 5.62908 5.5167 6.05733C4.85429 6.00039 4.19189 6.04794 3.62734 6.28709C2.03447 6.9684 1.5707 8.74612 1.4415 9.51085C1.43417 9.55271 1.43694 9.59565 1.44958 9.63629C1.46222 9.67693 1.48439 9.71417 1.51434 9.74508C1.5443 9.77598 1.58123 9.79971 1.62222 9.8144C1.66321 9.82909 1.70715 9.83433 1.75058 9.82973L4.30849 9.55555C4.31032 9.74296 4.32196 9.93016 4.34336 10.1164C4.35623 10.2458 4.41531 10.3667 4.51035 10.4581L5.50087 11.4184C5.59503 11.5106 5.71938 11.568 5.85244 11.5807C6.04303 11.6014 6.23459 11.6127 6.42636 11.6146L6.1457 14.0972C6.14102 14.1394 6.14646 14.1821 6.16159 14.2219C6.17673 14.2617 6.20115 14.2976 6.23294 14.3267C6.26472 14.3558 6.30302 14.3773 6.34481 14.3896C6.3866 14.4019 6.43076 14.4047 6.47382 14.3976C7.25927 14.2752 9.09179 13.8245 9.78876 12.2765C10.0349 11.7279 10.0852 11.0873 10.0284 10.4467C10.4702 10.144 10.8839 9.80448 11.265 9.43199C13.4198 7.34849 14.9063 3.58151 14.4933 1.83112ZM9.11523 6.94648C8.91847 6.75539 8.78445 6.51189 8.73011 6.24677C8.67578 5.98165 8.70357 5.70683 8.80998 5.45706C8.91639 5.20729 9.09663 4.99381 9.3279 4.8436C9.55918 4.6934 9.8311 4.61323 10.1093 4.61323C10.3874 4.61323 10.6594 4.6934 10.8906 4.8436C11.1219 4.99381 11.3022 5.20729 11.4086 5.45706C11.515 5.70683 11.5428 5.98165 11.4884 6.24677C11.4341 6.51189 11.3001 6.75539 11.1033 6.94648C10.9728 7.07345 10.8179 7.17419 10.6473 7.24292C10.4768 7.31165 10.2939 7.34702 10.1093 7.34702C9.92462 7.34702 9.74179 7.31165 9.57122 7.24292C9.40065 7.17419 9.2457 7.07345 9.11523 6.94648Z" fill="#05CD99"/>
<path d="M5.43359 12.1145C5.27305 12.2708 5.01553 12.3317 4.70557 12.3838C4.00918 12.4991 3.39424 11.9144 3.51934 11.2302C3.56709 10.9708 3.7083 10.6073 3.79619 10.5218C3.8154 10.5035 3.82819 10.4798 3.83273 10.454C3.83728 10.4283 3.83336 10.4018 3.82152 10.3783C3.80968 10.3548 3.79053 10.3355 3.76679 10.3232C3.74305 10.3109 3.71592 10.3062 3.68926 10.3097C3.29983 10.356 2.93754 10.5276 2.66006 10.7972C1.97129 11.4671 1.90625 13.9529 1.90625 13.9529C1.90625 13.9529 4.46562 13.8897 5.15439 13.2197C5.43261 12.9503 5.60939 12.5977 5.65625 12.2187C5.66709 12.0997 5.51797 12.0288 5.43359 12.1145Z" fill="#05CD99"/>
</svg>
