<svg width="16" height="16" viewBox="0 0 16 16" fill="none" xmlns="http://www.w3.org/2000/svg">
<path d="M10.2453 2.36313C9.67522 1.76495 8.87893 1.43555 8.00003 1.43555C7.11643 1.43555 6.31751 1.76296 5.75003 2.35743C5.1764 2.95845 4.8969 3.77528 4.96253 4.65731C5.09261 6.39745 6.4552 7.81302 8.00003 7.81302C9.54485 7.81302 10.9051 6.39774 11.0372 4.65788C11.1037 3.78382 10.8225 2.9687 10.2453 2.36313Z" fill="#05CD99"/>
<path d="M13.1564 14.1891H2.84392C2.70894 14.1908 2.57526 14.1632 2.45262 14.1084C2.32997 14.0536 2.22145 13.9729 2.13493 13.8722C1.9445 13.651 1.86775 13.3489 1.92458 13.0434C2.17185 11.7104 2.94353 10.5906 4.15642 9.80455C5.23396 9.10673 6.5989 8.72266 8.00016 8.72266C9.40143 8.72266 10.7664 9.10701 11.8439 9.80455C13.0568 10.5903 13.8285 11.7101 14.0757 13.0431C14.1326 13.3486 14.0558 13.6507 13.8654 13.8719C13.7789 13.9727 13.6704 14.0534 13.5478 14.1083C13.4251 14.1631 13.2914 14.1907 13.1564 14.1891Z" fill="#05CD99"/>
</svg>
