<svg width="16" height="16" viewBox="0 0 16 16" fill="none" xmlns="http://www.w3.org/2000/svg">
<path d="M14.2563 4.03136C14.2226 3.96571 14.1738 3.90896 14.1139 3.86574C14.0541 3.82251 13.9849 3.79403 13.912 3.7826C13.8391 3.77118 13.7645 3.77715 13.6943 3.80001C13.6241 3.82287 13.5603 3.86199 13.5081 3.91417L11.7081 5.71534C11.6197 5.80242 11.5006 5.85123 11.3766 5.85123C11.2525 5.85123 11.1334 5.80242 11.0451 5.71534L10.267 4.93604C10.2234 4.89252 10.1889 4.84084 10.1653 4.78396C10.1418 4.72708 10.1296 4.66612 10.1296 4.60455C10.1296 4.54298 10.1418 4.48202 10.1653 4.42514C10.1889 4.36826 10.2234 4.31659 10.267 4.27306L12.0593 2.48038C12.1131 2.42666 12.1529 2.36068 12.1755 2.28812C12.1981 2.21557 12.2027 2.13861 12.1889 2.06389C12.1751 1.98917 12.1434 1.91892 12.0964 1.85918C12.0494 1.79945 11.9887 1.75203 11.9193 1.72101C10.5655 1.11573 8.87566 1.43155 7.81013 2.48917C6.90486 3.388 6.63503 4.79249 7.07038 6.34259C7.09386 6.42525 7.09399 6.51279 7.07077 6.59553C7.04756 6.67826 7.00189 6.75296 6.93884 6.81134L2.0615 11.2659C1.87149 11.4365 1.71823 11.644 1.61107 11.8758C1.5039 12.1076 1.44508 12.3588 1.43819 12.6141C1.43129 12.8693 1.47647 13.1233 1.57098 13.3605C1.66548 13.5978 1.80732 13.8132 1.98784 13.9938C2.16836 14.1745 2.38379 14.3164 2.62097 14.411C2.85816 14.5056 3.11213 14.5509 3.36739 14.5441C3.62266 14.5373 3.87387 14.4786 4.1057 14.3716C4.33753 14.2645 4.54511 14.1113 4.71579 13.9214L9.21814 9.03321C9.27568 8.97097 9.34911 8.92561 9.43052 8.90202C9.51194 8.87843 9.59824 8.87749 9.68015 8.89932C10.1215 9.02024 10.5767 9.08298 11.0342 9.08595C12.0128 9.08595 12.8715 8.76925 13.4908 8.15899C14.6378 7.02901 14.8127 5.11241 14.2563 4.03136ZM3.41472 13.6006C3.22177 13.6217 3.02704 13.5823 2.85741 13.488C2.68777 13.3937 2.55159 13.249 2.46767 13.074C2.38374 12.899 2.3562 12.7022 2.38886 12.5109C2.42151 12.3196 2.51274 12.1431 2.64996 12.0058C2.78719 11.8686 2.96363 11.7773 3.15495 11.7445C3.34627 11.7118 3.54302 11.7393 3.71807 11.8232C3.89311 11.907 4.03781 12.0431 4.13219 12.2128C4.22657 12.3824 4.26599 12.5771 4.24499 12.77C4.2219 12.9823 4.12701 13.1804 3.97602 13.3314C3.82504 13.4825 3.62702 13.5774 3.41472 13.6006Z" fill="#05CD99"/>
</svg>
