<svg width="16" height="16" viewBox="0 0 16 16" fill="none" xmlns="http://www.w3.org/2000/svg">
<path d="M14.2563 3.92637C14.2226 3.86257 14.1738 3.80743 14.1139 3.76542C14.0541 3.72341 13.9849 3.69573 13.912 3.68463C13.8391 3.67353 13.7645 3.67933 13.6943 3.70154C13.6241 3.72376 13.5603 3.76177 13.5081 3.81249L11.7081 5.56288C11.6197 5.6475 11.5006 5.69494 11.3766 5.69494C11.2525 5.69494 11.1334 5.6475 11.0451 5.56288L10.267 4.80555C10.2234 4.76325 10.1889 4.71303 10.1653 4.65775C10.1418 4.60248 10.1296 4.54323 10.1296 4.4834C10.1296 4.42357 10.1418 4.36433 10.1653 4.30905C10.1889 4.25378 10.2234 4.20356 10.267 4.16126L12.0593 2.41912C12.1131 2.36691 12.1529 2.30279 12.1755 2.23228C12.1981 2.16177 12.2027 2.08699 12.1889 2.01438C12.1751 1.94176 12.1434 1.87349 12.0964 1.81544C12.0494 1.75739 11.9887 1.71131 11.9193 1.68116C10.5655 1.09295 8.87566 1.39987 7.81013 2.42766C6.90486 3.30115 6.63503 4.66604 7.07038 6.17244C7.09386 6.25277 7.09399 6.33785 7.07077 6.41825C7.04756 6.49865 7.00189 6.57124 6.93884 6.62797L2.0615 10.957C1.87149 11.1228 1.71823 11.3244 1.61107 11.5497C1.5039 11.7749 1.44508 12.019 1.43819 12.2671C1.43129 12.5152 1.47647 12.762 1.57098 12.9925C1.66548 13.2231 1.80732 13.4325 1.98784 13.608C2.16836 13.7835 2.38379 13.9214 2.62097 14.0134C2.85816 14.1053 3.11213 14.1493 3.36739 14.1427C3.62266 14.1361 3.87387 14.0791 4.1057 13.975C4.33753 13.871 4.54511 13.7221 4.71579 13.5376L9.21814 8.7872C9.27568 8.72672 9.34911 8.68264 9.43052 8.65971C9.51194 8.63678 9.59824 8.63588 9.68015 8.65709C10.1215 8.7746 10.5767 8.83557 11.0342 8.83845C12.0128 8.83845 12.8715 8.53068 13.4908 7.93763C14.6378 6.83951 14.8127 4.97695 14.2563 3.92637ZM3.41472 13.2258C3.22177 13.2463 3.02704 13.208 2.85741 13.1164C2.68777 13.0247 2.55159 12.8841 2.46767 12.7141C2.38374 12.544 2.3562 12.3528 2.38886 12.1669C2.42151 11.9809 2.51274 11.8094 2.64996 11.676C2.78719 11.5426 2.96363 11.4539 3.15495 11.4221C3.34627 11.3903 3.54302 11.417 3.71807 11.4985C3.89311 11.58 4.03781 11.7123 4.13219 11.8771C4.22657 12.0419 4.26599 12.2311 4.24499 12.4187C4.2219 12.625 4.12701 12.8175 3.97602 12.9642C3.82504 13.111 3.62702 13.2033 3.41472 13.2258Z" fill="#05CD99"/>
</svg>
