<svg width="15" height="16" viewBox="0 0 15 16" fill="none" xmlns="http://www.w3.org/2000/svg">
<path d="M7.5 1.8623C4.13994 1.8623 1.40625 4.57188 1.40625 7.90231C1.40625 11.2327 4.13994 13.9423 7.5 13.9423C10.8601 13.9423 13.5937 11.2327 13.5937 7.90231C13.5937 4.57188 10.8601 1.8623 7.5 1.8623ZM10.6714 5.87803L6.73389 10.5242C6.69069 10.5752 6.63695 10.6164 6.57629 10.645C6.51564 10.6736 6.44949 10.6889 6.38232 10.69H6.37441C6.30871 10.69 6.24375 10.6763 6.18374 10.6497C6.12373 10.6232 6.07001 10.5845 6.02607 10.5361L4.33857 8.67763C4.29572 8.63258 4.26238 8.57949 4.24052 8.52148C4.21866 8.46347 4.20872 8.40172 4.21128 8.33985C4.21384 8.27798 4.22886 8.21724 4.25544 8.16121C4.28202 8.10517 4.31964 8.05497 4.36608 8.01354C4.41251 7.97212 4.46684 7.94032 4.52585 7.92001C4.58487 7.89969 4.64738 7.89127 4.70973 7.89525C4.77207 7.89922 4.83298 7.91551 4.88889 7.94315C4.94479 7.97079 4.99455 8.00923 5.03525 8.05621L6.36211 9.51742L9.95361 5.28042C10.0342 5.1881 10.1482 5.13091 10.2709 5.12122C10.3937 5.11152 10.5153 5.1501 10.6096 5.22861C10.7039 5.30712 10.7633 5.41925 10.7748 5.54078C10.7864 5.6623 10.7492 5.78345 10.6714 5.87803Z" fill="#01B574"/>
</svg>
