<svg width="16" height="15" viewBox="0 0 16 15" fill="none" xmlns="http://www.w3.org/2000/svg">
<path d="M13.0391 6.64219H8.9375C8.56454 6.64219 8.20685 6.49821 7.94313 6.24192C7.67941 5.98563 7.53125 5.63803 7.53125 5.27559V1.28966C7.53125 1.25946 7.5189 1.23049 7.49693 1.20914C7.47495 1.18778 7.44514 1.17578 7.41406 1.17578H4.71875C4.22147 1.17578 3.74456 1.36776 3.39292 1.70947C3.04129 2.05119 2.84375 2.51466 2.84375 2.99792V12.1086C2.84375 12.5919 3.04129 13.0553 3.39292 13.397C3.74456 13.7388 4.22147 13.9307 4.71875 13.9307H11.2812C11.7785 13.9307 12.2554 13.7388 12.6071 13.397C12.9587 13.0553 13.1562 12.5919 13.1562 12.1086V6.75607C13.1562 6.72587 13.1439 6.6969 13.1219 6.67554C13.0999 6.65419 13.0701 6.64219 13.0391 6.64219Z" fill="#05CD99"/>
<path d="M12.7818 5.63439L8.56865 1.54C8.56046 1.53208 8.55004 1.5267 8.53871 1.52452C8.52737 1.52234 8.51563 1.52347 8.50495 1.52776C8.49428 1.53205 8.48514 1.53931 8.4787 1.54863C8.47226 1.55795 8.4688 1.56891 8.46875 1.58014V5.27595C8.46875 5.39676 8.51814 5.51263 8.60604 5.59806C8.69395 5.68349 8.81318 5.73148 8.9375 5.73148H12.7405C12.7521 5.73143 12.7634 5.72807 12.773 5.72181C12.7825 5.71555 12.79 5.70667 12.7944 5.6963C12.7988 5.68592 12.8 5.67451 12.7978 5.6635C12.7955 5.65248 12.79 5.64236 12.7818 5.63439Z" fill="#05CD99"/>
</svg>
