<svg width="35" height="4" viewBox="0 0 35 4" fill="none" xmlns="http://www.w3.org/2000/svg">
<path fill-rule="evenodd" clip-rule="evenodd" d="M6.2502 3.74805C7.21669 3.74805 8.00019 2.96455 8.00019 1.99805C8.00019 1.03155 7.21669 0.248047 6.2502 0.248047C5.2837 0.248047 4.5002 1.03155 4.5002 1.99805C4.5002 2.96455 5.2837 3.74805 6.2502 3.74805ZM1.75 3.74805C2.7165 3.74805 3.5 2.96455 3.5 1.99805C3.5 1.03156 2.7165 0.248055 1.75 0.248055C0.783502 0.248055 0 1.03156 0 1.99805C0 2.96455 0.783502 3.74805 1.75 3.74805ZM12.5 1.99805C12.5 2.96455 11.7165 3.74805 10.75 3.74805C9.7835 3.74805 9 2.96455 9 1.99805C9 1.03155 9.7835 0.248047 10.75 0.248047C11.7165 0.248047 12.5 1.03155 12.5 1.99805ZM15.2498 3.74805C16.2163 3.74805 16.9998 2.96455 16.9998 1.99805C16.9998 1.03155 16.2163 0.248047 15.2498 0.248047C14.2833 0.248047 13.4998 1.03155 13.4998 1.99805C13.4998 2.96455 14.2833 3.74805 15.2498 3.74805ZM21.4996 1.99805C21.4996 2.96455 20.7161 3.74805 19.7496 3.74805C18.7831 3.74805 17.9996 2.96455 17.9996 1.99805C17.9996 1.03155 18.7831 0.248047 19.7496 0.248047C20.7161 0.248047 21.4996 1.03155 21.4996 1.99805ZM24.2504 3.74805C25.2169 3.74805 26.0004 2.96455 26.0004 1.99805C26.0004 1.03155 25.2169 0.248047 24.2504 0.248047C23.2839 0.248047 22.5004 1.03155 22.5004 1.99805C22.5004 2.96455 23.2839 3.74805 24.2504 3.74805ZM30.5002 1.99805C30.5002 2.96455 29.7167 3.74805 28.7502 3.74805C27.7837 3.74805 27.0002 2.96455 27.0002 1.99805C27.0002 1.03155 27.7837 0.248047 28.7502 0.248047C29.7167 0.248047 30.5002 1.03155 30.5002 1.99805ZM33.25 3.74805C34.2165 3.74805 35 2.96455 35 1.99805C35 1.03155 34.2165 0.248047 33.25 0.248047C32.2835 0.248047 31.5 1.03155 31.5 1.99805C31.5 2.96455 32.2835 3.74805 33.25 3.74805Z" fill="black"/>
</svg>
