<svg width="42" height="41" viewBox="0 0 42 41" fill="none" xmlns="http://www.w3.org/2000/svg">
<g filter="url(#filter0_d_1986_683)">
<rect x="6" y="2.72754" width="30" height="29.1542" rx="12" fill="#1A1F37"/>
</g>
<path d="M14.4375 20.7214C14.4375 21.1443 14.6104 21.5498 14.918 21.8488C15.2257 22.1478 15.643 22.3158 16.0781 22.3158H25.9219C26.357 22.3158 26.7743 22.1478 27.082 21.8488C27.3896 21.5498 27.5625 21.1443 27.5625 20.7214V16.3369H14.4375V20.7214ZM16.3711 18.5576C16.3711 18.3311 16.4637 18.1139 16.6285 17.9537C16.7933 17.7935 17.0169 17.7035 17.25 17.7035H18.6562C18.8893 17.7035 19.1129 17.7935 19.2777 17.9537C19.4426 18.1139 19.5352 18.3311 19.5352 18.5576V19.1271C19.5352 19.3536 19.4426 19.5708 19.2777 19.731C19.1129 19.8912 18.8893 19.9812 18.6562 19.9812H17.25C17.0169 19.9812 16.7933 19.8912 16.6285 19.731C16.4637 19.5708 16.3711 19.3536 16.3711 19.1271V18.5576Z" fill="#05CD99"/>
<path d="M25.9219 12.293H16.0781C15.643 12.293 15.2257 12.4609 14.918 12.7599C14.6104 13.059 14.4375 13.4645 14.4375 13.8873V14.6276H27.5625V13.8873C27.5625 13.4645 27.3896 13.059 27.082 12.7599C26.7743 12.4609 26.357 12.293 25.9219 12.293Z" fill="#05CD99"/>
<defs>
<filter id="filter0_d_1986_683" x="0.5" y="0.727539" width="41" height="40.1543" filterUnits="userSpaceOnUse" color-interpolation-filters="sRGB">
<feFlood flood-opacity="0" result="BackgroundImageFix"/>
<feColorMatrix in="SourceAlpha" type="matrix" values="0 0 0 0 0 0 0 0 0 0 0 0 0 0 0 0 0 0 127 0" result="hardAlpha"/>
<feOffset dy="3.5"/>
<feGaussianBlur stdDeviation="2.75"/>
<feColorMatrix type="matrix" values="0 0 0 0 0 0 0 0 0 0 0 0 0 0 0 0 0 0 0.02 0"/>
<feBlend mode="normal" in2="BackgroundImageFix" result="effect1_dropShadow_1986_683"/>
<feBlend mode="normal" in="SourceGraphic" in2="effect1_dropShadow_1986_683" result="shape"/>
</filter>
</defs>
</svg>
