<svg width="290" height="290" viewBox="0 0 290 290" fill="none" xmlns="http://www.w3.org/2000/svg">
<path d="M231.35 194.854C234.359 196.592 238.225 195.568 239.781 192.461C247.146 177.754 251 161.506 251 145C251 128.494 247.146 112.246 239.781 97.5386C238.225 94.4318 234.359 93.4082 231.35 95.1455C228.341 96.8828 227.331 100.722 228.862 103.841C235.136 116.626 238.417 130.703 238.417 145C238.417 159.297 235.136 173.374 228.862 186.158C227.331 189.277 228.341 193.117 231.35 194.854Z" fill="#22234B"/>
<path d="M237.24 107.14C240.455 105.82 242.008 102.135 240.5 99.0049C233.869 85.2369 224.328 73.0417 212.508 63.2777C199.069 52.1758 183.099 44.5597 166.013 41.1039C148.927 37.6482 131.253 38.4595 114.555 43.466C97.858 48.4726 82.653 57.5197 70.2873 69.8062C57.9215 82.0926 48.7768 97.2391 43.663 113.904C38.5492 130.569 37.6242 148.238 40.97 165.345C44.3157 182.453 51.829 198.472 62.8442 211.982C72.532 223.864 84.6656 233.484 98.3906 240.203C101.511 241.731 105.206 240.202 106.546 236.996C107.886 233.79 106.362 230.124 103.254 228.571C91.4327 222.667 80.9762 214.309 72.5963 204.031C62.8886 192.124 56.2672 178.007 53.3185 162.93C50.3699 147.853 51.1851 132.282 55.6919 117.595C60.1987 102.908 68.2579 89.5599 79.1558 78.7319C90.0537 67.9039 103.454 59.9307 118.169 55.5184C132.884 51.1062 148.461 50.3912 163.519 53.4367C178.576 56.4823 192.65 63.1943 204.494 72.9784C214.719 81.4243 223.008 91.9343 228.837 103.793C230.37 106.911 234.026 108.459 237.24 107.14Z" fill="url(#paint0_linear_580_4166)"/>
<defs>
<linearGradient id="paint0_linear_580_4166" x1="125.5" y1="51.5001" x2="42.5" y2="159.5" gradientUnits="userSpaceOnUse">
<stop stop-color="#05CD99"/>
<stop offset="1" stop-color="#0075FF" stop-opacity="0"/>
</linearGradient>
</defs>
</svg>
