<svg width="457" height="718" viewBox="0 0 457 718" fill="none" xmlns="http://www.w3.org/2000/svg">
<g filter="url(#filter0_b_580_2390)">
<path d="M2 32C2 15.4315 15.4315 2 32 2H424.5C441.069 2 454.5 15.4315 454.5 32V685.5C454.5 702.069 441.069 715.5 424.5 715.5H32C15.4315 715.5 2 702.069 2 685.5V32Z" fill="url(#paint0_linear_580_2390)" fill-opacity="0.1"/>
<path d="M32 1C14.8792 1 1 14.8792 1 32V685.5C1 702.621 14.8792 716.5 32 716.5H424.5C441.621 716.5 455.5 702.621 455.5 685.5V32C455.5 14.8792 441.621 1 424.5 1H32Z" stroke="url(#paint1_radial_580_2390)" stroke-width="2"/>
</g>
<defs>
<filter id="filter0_b_580_2390" x="-42" y="-42" width="540.5" height="801.5" filterUnits="userSpaceOnUse" color-interpolation-filters="sRGB">
<feFlood flood-opacity="0" result="BackgroundImageFix"/>
<feGaussianBlur in="BackgroundImageFix" stdDeviation="21"/>
<feComposite in2="SourceAlpha" operator="in" result="effect1_backgroundBlur_580_2390"/>
<feBlend mode="normal" in="SourceGraphic" in2="effect1_backgroundBlur_580_2390" result="shape"/>
</filter>
<linearGradient id="paint0_linear_580_2390" x1="-205.786" y1="88.6393" x2="387.616" y2="339.019" gradientUnits="userSpaceOnUse">
<stop offset="0.0001" stop-color="white" stop-opacity="0"/>
<stop offset="1" stop-color="white" stop-opacity="0.39"/>
</linearGradient>
<radialGradient id="paint1_radial_580_2390" cx="0" cy="0" r="1" gradientUnits="userSpaceOnUse" gradientTransform="translate(225.75 358.75) rotate(-120.233) scale(573.358 388.376)">
<stop stop-color="white"/>
<stop offset="1" stop-color="white" stop-opacity="0"/>
</radialGradient>
</defs>
</svg>
